<?xml version="1.0" standalone="no"?>
<!DOCTYPE svg PUBLIC "-//W3C//DTD SVG 1.1//EN" "http://www.w3.org/Graphics/SVG/1.1/DTD/svg11.dtd" >
<svg xmlns="http://www.w3.org/2000/svg">
<metadata>
This is a custom SVG webfont generated by Font Squirrel.
Copyright   : Copyright c 2011 Gesine Todt wwwgesinetodtde with Reserved Font Names Leckerli and Leckerli One This Font Software is licensed under the SIL Open Font License Version 11 This license is available with a FAQ at httpscriptssilorgOFL
Designer    : Gesine Todt
Foundry     : Gesine Todt
Foundry URL : httpwwwgesinetodtde
</metadata>
<defs>
<font id="LeckerliOneRegular" horiz-adv-x="1191" >
<font-face units-per-em="2048" ascent="1556" descent="-492" />
<missing-glyph horiz-adv-x="819" />
<glyph unicode=" "  horiz-adv-x="819" />
<glyph unicode="&#x09;" horiz-adv-x="819" />
<glyph unicode="&#xa0;" horiz-adv-x="819" />
<glyph unicode="!" horiz-adv-x="1017" d="M328 39q0 111 67.5 195.5t151.5 84.5q55 0 102 -39t76 -98q-41 -106 -124 -173.5t-175 -67.5q-98 0 -98 98zM430 580q0 186 85 442t224 391q35 35 82 35q55 0 105.5 -49t50.5 -78q-2 -59 -62.5 -152.5t-120 -199t-59.5 -195.5q0 -27 10.5 -95.5t10.5 -96.5q0 -53 -73 -91 t-163 -38t-90 127z" />
<glyph unicode="&#x22;" horiz-adv-x="577" d="M102 1260h127v-394h-106zM328 866v394h127v-394h-127z" />
<glyph unicode="#" horiz-adv-x="950" d="M82 373v119h156l41 208h-148v119h172l72 363h127l-72 -363h180l72 363h127l-72 -363h131v-119h-155l-41 -208h147v-119h-170l-74 -373h-126l73 373h-180l-74 -373h-127l74 373h-133zM365 492h180l41 208h-180z" />
<glyph unicode="$" horiz-adv-x="1167" d="M61 440q0 131 78 251t174 120q74 0 74 -45q0 -41 -29.5 -129t-29.5 -143q0 -57 24.5 -111.5t69.5 -83.5q20 57 71.5 198.5t77.5 219.5l19 55q-51 27 -69.5 36t-62.5 35.5t-62.5 47t-43 53.5t-35 72t-10.5 86q0 180 128 282.5t300 102.5q6 0 16.5 -1t16.5 -1 q30 118 63 231q4 12 23 17q47 0 82 -54.5t35 -105.5q0 -23 -37 -143q119 -82 119 -254q0 -121 -62 -121q-25 0 -43 26.5t-41.5 73.5t-44.5 74l-94 -287q160 -72 211 -113q127 -100 127 -278q0 -141 -89 -256t-220 -176.5t-273 -71.5q-2 -6 -19.5 -93t-33.5 -137t-33 -50 q-47 0 -83 50t-36 111q0 47 25 133q-129 33 -206 128.5t-77 250.5zM565 1169q0 -102 86 -163q12 49 36 150t34 144q-70 0 -113 -36t-43 -95zM582 289q98 18 161.5 82.5t63.5 156.5q0 106 -111 183q-59 -201 -114 -422z" />
<glyph unicode="%" horiz-adv-x="1394" d="M164 1192q0 137 84 252t217 115q76 0 118 -29t42 -70q0 -27 -41 -26q-14 0 -53 5t-72 5q-61 0 -97 -68.5t-36 -154.5q0 -70 27.5 -106t72.5 -36q59 0 108.5 56.5t49.5 148.5q0 16 -8.5 50t-8.5 55q0 29 37 28q39 0 62.5 -40t23.5 -105q0 -156 -85 -245t-210 -89 q-98 0 -164.5 65.5t-66.5 188.5zM242 41q0 17 6 35l809 1446q6 16 20 16q31 0 70 -58.5t39 -109.5q0 -35 -22.5 -85t-47 -90t-82 -125t-90.5 -136q-489 -770 -575 -1038q-3 -6 -13 -7q-41 0 -77.5 53.5t-36.5 98.5zM766 229q0 137 84 252t217 115q76 0 118 -28.5t42 -69.5 q0 -27 -41 -27q-14 0 -53 5t-72 5q-61 0 -97 -68.5t-36 -154.5q0 -70 27.5 -105.5t72.5 -35.5q59 0 108.5 56t49.5 149q0 16 -8.5 50t-8.5 54q0 29 37 29q39 0 62.5 -40t23.5 -106q0 -156 -85 -245t-210 -89q-98 0 -164.5 65.5t-66.5 188.5z" />
<glyph unicode="&#x26;" horiz-adv-x="1187" d="M0 393q0 129 81 229.5t212 151.5q-150 104 -150 324q0 164 118 254t280 90q164 0 284.5 -87t120.5 -237q0 -78 -37 -78q-30 1 -73 52q-104 131 -234 131q-70 0 -115 -50.5t-45 -148.5q0 -90 80 -162q20 2 68 2q74 0 126 -27.5t52 -76.5t-63.5 -72.5t-141.5 -23.5 q-41 0 -98 14q-123 -74 -123 -238q0 -106 86 -172.5t199 -66.5q123 0 210 85t87 253q0 47 -17.5 116.5t-17.5 106.5q0 63 125 63q119 0 198.5 8.5t107.5 19.5t48.5 19.5t30.5 8.5q45 0 45 -47q0 -68 -57.5 -127.5t-129.5 -59.5q-55 0 -149 17q12 -72 12 -138 q0 -141 -47 -249.5t-127 -173t-176 -96.5t-205 -32q-152 0 -273.5 37t-206.5 134.5t-85 246.5z" />
<glyph unicode="'" horiz-adv-x="352" d="M102 866v394h127v-394h-127z" />
<glyph unicode="(" horiz-adv-x="1230" d="M143 627q0 166 50.5 313t131.5 257t197.5 204t237.5 158.5t262 117.5q16 6 35 6q33 0 62.5 -18t29.5 -51q0 -51 -88 -86q-94 -37 -195.5 -107.5t-201 -175t-163 -251t-63.5 -302.5q0 -319 149.5 -586.5t393.5 -435.5q25 -16 25 -47q0 -43 -39 -68.5t-86 -25.5 q-34 0 -62 18q-188 131 -332.5 286t-244 366t-99.5 428z" />
<glyph unicode=")" horiz-adv-x="1230" d="M143 -401q0 51 88 86q94 37 195.5 107.5t201 175t163 251t63.5 301.5q0 319 -149.5 586.5t-393.5 435.5q-25 16 -24 47q0 43 39 68.5t86 25.5q34 0 61 -18q293 -205 484.5 -483.5t191.5 -595.5q0 -207 -72.5 -381t-203 -300t-278 -215t-325.5 -155q-14 -6 -34 -6 q-33 0 -63 18.5t-30 51.5z" />
<glyph unicode="*" horiz-adv-x="1093" d="M266 1030q0 35 43 76t123 97.5t92 66.5q-31 25 -81 41t-77.5 31.5t-27.5 43.5q0 41 43 70t88 29q53 0 164 -49q16 39 57 116q37 66 172 66q53 0 53 -19q0 -10 -47 -93t-47 -138q104 23 156 23q76 0 76 -35q0 -31 -31 -52.5t-63.5 -28.5t-75.5 -12l-43 -6q82 -180 96 -223 q0 -27 -57.5 -53.5t-110.5 -26.5q-49 0 -57 27q-18 53 -68 156q-143 -106 -168 -133q-51 -51 -113 -52q-43 0 -69.5 21.5t-26.5 56.5z" />
<glyph unicode="+" horiz-adv-x="966" d="M102 479v119h318v322h127v-322h317v-119h-317v-321h-127v321h-318z" />
<glyph unicode="," horiz-adv-x="708" d="M123 -193q0 27 21.5 45.5t49 31t57.5 37t42 59.5q-70 45 -70 143q0 94 73 154.5t171 60.5q61 0 100 -34t39 -105q0 -150 -120.5 -298.5t-268.5 -148.5q-94 0 -94 55z" />
<glyph unicode="-" horiz-adv-x="802" d="M94 573q0 166 281 166q68 0 188.5 -3t134.5 -3q25 0 25 -34.5t-52.5 -94t-84.5 -59.5q-12 0 -86 7t-97 7q-80 0 -178 -2t-119 -2q-12 0 -12 18z" />
<glyph unicode="." horiz-adv-x="847" d="M225 78q41 106 124 173.5t175 67.5q98 0 99 -98q0 -111 -68 -195.5t-152 -84.5q-55 0 -102 39t-76 98z" />
<glyph unicode="/" horiz-adv-x="944" d="M246 41q0 17 6 35l522 1446q6 16 21 16q31 0 69.5 -58.5t38.5 -109.5q0 -59 -153 -450q-66 -166 -104 -263.5t-76 -196t-51 -132t-38.5 -108.5t-30 -88t-35 -106.5t-42.5 -129.5q-3 -6 -13 -7q-41 0 -77.5 53.5t-36.5 98.5z" />
<glyph unicode="0" horiz-adv-x="1499" d="M102 612q0 219 86 428t262.5 355.5t401.5 146.5q170 0 270.5 -66.5t100.5 -144.5q0 -23 -62 -22q-47 0 -142 18.5t-183 18.5q-127 0 -223.5 -102.5t-142.5 -250t-46 -303.5q0 -213 91 -322.5t228 -109.5q180 0 328 168t148 432q0 96 -32 164t-70 96.5t-69.5 60 t-31.5 64.5q0 23 51 23q47 0 97 -19.5t105.5 -63.5t91.5 -136.5t36 -217.5q0 -397 -211 -620t-527 -223q-236 0 -396.5 161.5t-160.5 464.5z" />
<glyph unicode="1" horiz-adv-x="1081" d="M-61 -18q0 78 118.5 152.5t292.5 82.5v33q0 156 77 469t163 549l-74 -19q-84 -25 -188.5 -85t-132.5 -60q-18 0 -19 49q0 96 73 175t177 110q14 4 86 26.5t112 33.5t96 23.5t91 12.5q16 0 42 -37t26 -74q0 -74 -100.5 -514t-119.5 -692q61 -2 112.5 -1t89.5 1t64.5 -3 t40 -13.5t13.5 -26.5q0 -8 -6 -24.5t-14.5 -39t-12.5 -34.5q-23 -76 -88 -76q-20 0 -206.5 7t-221.5 7q-127 0 -282.5 -26.5t-188.5 -26.5q-20 0 -20 21z" />
<glyph unicode="2" horiz-adv-x="1400" d="M0 195q0 102 75 156.5t197 54.5q143 0 248 -33l41 51q289 438 289 725q0 92 -53.5 144.5t-141.5 52.5q-94 0 -160.5 -31t-94 -67t-60.5 -66.5t-68 -30.5q-27 0 -26 33q0 123 128 240.5t333 117.5q221 0 342.5 -95t121.5 -273q0 -221 -128 -466t-304 -432q135 -68 248 -67 q154 0 258 133q45 59 74 59q31 0 31 -77q0 -129 -132 -229.5t-333 -100.5q-131 0 -314 106q-125 -135 -325 -135q-123 0 -184.5 62.5t-61.5 167.5zM199 182.5q0 -28.5 20 -43t49 -14.5q45 0 123 84q-74 35 -119 35q-31 0 -52 -16.5t-21 -45z" />
<glyph unicode="3" horiz-adv-x="1222" d="M10 281q0 37 43 36.5t101.5 -42.5t131 -82.5t150.5 -40.5q154 0 234 89t80 187q0 172 -86 299q-39 -8 -89 -8q-193 0 -192 100q0 94 190 94q29 0 74 -12q86 111 86 248q0 92 -51 144.5t-143 52.5q-94 0 -161 -31t-94.5 -67t-60.5 -66.5t-67 -30.5q-27 0 -27 33 q0 123 128 240.5t333 117.5q221 0 343 -95t122 -273q0 -100 -54.5 -197.5t-144.5 -165.5q233 -150 234 -405q0 -143 -96.5 -250t-230.5 -154t-282 -47q-193 0 -332 106.5t-139 219.5z" />
<glyph unicode="4" horiz-adv-x="1404" d="M72 680q0 78 60.5 198.5t168 287.5t121.5 190q55 96 106 96q16 0 28.5 -23.5t12.5 -52.5q0 -51 -87 -288.5t-115 -380.5q100 39 403 38q111 429 209 646q66 143 158 143q27 0 26.5 -51t-14.5 -151.5t-47 -294t-49 -294.5q59 -2 109 -1t91 0t71 -4t45 -12t15 -26 q0 -6 -7 -23.5t-18 -40t-16 -34.5q-16 -41 -41.5 -58.5t-70.5 -17.5q-37 0 -209 9q-41 -293 -41 -494q0 -57 -82 -57q-127 0 -175 49t-48 170q0 113 47 334q-106 -6 -248.5 -27t-185.5 -23h-25q-78 37 -122 82t-70 111z" />
<glyph unicode="5" horiz-adv-x="1282" d="M41 281q0 37 43 36.5t101.5 -42.5t131 -82.5t150.5 -40.5q154 0 233.5 75.5t79.5 200.5q0 311 -270 311q-10 0 -35.5 -1t-40.5 -1q-20 -31 -76 -30q-92 31 -108 90q39 301 135 522q-63 -6 -109 -6q-27 0 -26 20q0 82 164.5 160t400.5 78q88 0 241.5 -3t172.5 -3 q33 0 33 -39q0 -8 -5.5 -24.5t-12.5 -39t-9 -35.5q-20 -76 -72 -75q-14 0 -148 7t-163 7q-78 0 -254 -20q-12 -55 -52 -194.5t-63 -225.5q61 8 101 8q236 0 386 -117t150 -371q0 -242 -167 -366.5t-441 -124.5q-193 0 -332 107.5t-139 218.5z" />
<glyph unicode="6" horiz-adv-x="1462" d="M82 524q0 45 111 101q2 219 89 424.5t262 349t398 143.5q170 0 270.5 -66.5t100.5 -144.5q0 -41 -33 -41q-8 0 -125 28t-229 28q-158 0 -266.5 -148.5t-141.5 -357.5q182 82 373 82q225 0 352 -128t127 -307q0 -231 -179 -368t-458 -137q-209 0 -359.5 130t-176.5 396 q-51 -20 -88 -21q-27 0 -27 37zM506 655q8 -201 93 -309t214 -108q125 0 204 73.5t79 180t-71 174t-200 67.5q-162 0 -319 -78z" />
<glyph unicode="7" horiz-adv-x="1226" d="M61 1333q0 82 165 160t401 78q88 0 241.5 -3t171.5 -3q49 0 50 -66q0 -39 -17.5 -82t-38.5 -57l-137 -447q47 -2 86 -1t68.5 1t50 -3t32 -13t11.5 -27q0 -8 -5 -24.5t-12.5 -39t-9.5 -34.5q-20 -76 -71 -76q-2 0 -211 11q-137 -467 -138 -660q0 -57 -82 -57 q-127 0 -175 49t-48 170q0 141 127 485q-47 -4 -131 -14t-139 -16.5t-90 -6.5q-27 0 -27 21q0 78 136.5 140.5t332.5 88.5q20 49 191 453q-84 6 -129 6q-98 0 -310.5 -26.5t-265.5 -26.5q-27 0 -27 20z" />
<glyph unicode="8" horiz-adv-x="1234" d="M102 324q0 104 31 183t91.5 134t118.5 89t144 71q-86 51 -133 87t-89 107.5t-42 161.5q0 184 119 284.5t320 100.5q137 0 248.5 -84t111.5 -178q0 -18 -16 -18q-41 0 -148.5 42t-212.5 42q-80 0 -131 -44.5t-51 -113.5q0 -47 19.5 -87t62.5 -76t81 -59.5t103 -58.5 q160 86 160 226q0 18 -13.5 46.5t-13.5 39.5q0 25 15 24q51 0 97 -54t46 -136q0 -162 -115 -246q227 -150 228 -367q0 -199 -149.5 -345t-403.5 -146q-209 0 -343.5 108.5t-134.5 266.5zM422 358q0 -63 47 -105t121 -42q98 0 156.5 54.5t58.5 148.5q0 168 -141 276 q-117 -51 -179.5 -122.5t-62.5 -209.5z" />
<glyph unicode="9" horiz-adv-x="1417" d="M92 281q0 37 43 36.5t101.5 -42.5t131 -82.5t150.5 -40.5q408 0 408 575v12q-154 -76 -344 -75q-188 0 -313.5 110.5t-125.5 302.5q0 199 164 332t391 133q213 0 337 -128t171 -337q70 45 101 45q29 0 28 -37q0 -53 -104 -139q8 -72 8 -160q0 -141 -14.5 -250.5 t-57.5 -223t-114.5 -188.5t-196.5 -122t-293 -47q-193 0 -332 106.5t-139 219.5zM418 1073q0 -94 62.5 -157.5t166.5 -63.5q150 0 277 70q-4 86 -17.5 151.5t-43 128t-85 96t-135.5 33.5q-86 0 -155.5 -77.5t-69.5 -180.5z" />
<glyph unicode=":" horiz-adv-x="960" d="M307 78q41 106 124 173.5t175 67.5q98 0 99 -98q0 -111 -68 -195.5t-152 -84.5q-55 0 -102 39t-76 98zM338 909q0 98 98 99q92 0 175 -68t124 -174q-29 -59 -76 -98t-102 -39q-84 0 -151.5 85t-67.5 195z" />
<glyph unicode=";" horiz-adv-x="899" d="M184 -193q0 27 21.5 45.5t49.5 31t57.5 37t41.5 59.5q-69 45 -69 143q0 94 72.5 154.5t170.5 60.5q61 0 100.5 -34t39.5 -105q0 -150 -121 -298.5t-268 -148.5q-94 0 -95 55zM276 766q41 106 124 174t175 68q98 0 99 -99q0 -111 -67.5 -195.5t-151.5 -84.5 q-55 0 -102.5 39t-76.5 98z" />
<glyph unicode="&#x3c;" horiz-adv-x="800" d="M61 543l545 379l68 -99l-400 -276l404 -281l-72 -102z" />
<glyph unicode="=" horiz-adv-x="966" d="M123 362v119h721v-119h-721zM123 690v119h721v-119h-721z" />
<glyph unicode="&#x3e;" horiz-adv-x="800" d="M123 819l72 103l544 -379l-544 -379l-68 98l397 277z" />
<glyph unicode="?" horiz-adv-x="1171" d="M246 1087q0 123 128 241t333 118q221 0 342.5 -95.5t121.5 -273.5q0 -125 -28.5 -216t-75.5 -141t-103.5 -86t-112.5 -59.5t-103.5 -50t-76 -69.5t-28.5 -107q0 -12 -22 -12q-37 0 -81 27.5t-44 68.5q0 100 26.5 169t65.5 99.5t85 61.5t85 57.5t65.5 86t26.5 147.5 q0 92 -53.5 144t-141.5 52q-94 0 -160.5 -30.5t-94 -66.5t-60.5 -66.5t-68 -30.5q-26 -1 -26 32zM338 98q0 82 69.5 117t163.5 35q80 0 80 -80q0 -90 -54 -159.5t-124 -69.5q-49 0 -92 49t-43 108z" />
<glyph unicode="@" horiz-adv-x="1906" d="M246 440q0 213 126 377t321.5 246t422.5 82q211 0 376 -124t165 -339q0 -186 -125 -336.5t-285 -150.5q-80 0 -114 110q-82 -137 -246 -137q-94 0 -153.5 58.5t-59.5 154.5q0 166 103.5 303t269.5 137q78 0 114 -18q35 61 86 61q39 0 74 -38t35 -85q0 -10 -8.5 -26.5 t-21.5 -34.5t-17 -25q0 -248 41 -247q45 0 80.5 63.5t35.5 128.5q0 176 -117.5 302t-314.5 126q-207 0 -372.5 -149.5t-165.5 -376.5q0 -223 175 -377t412 -154q119 0 227.5 55.5t172 121t122 121t89.5 55.5q39 0 39 -70q0 -133 -104.5 -234.5t-263.5 -149.5t-337 -48 q-344 0 -563 181t-219 437zM874 418q0 -105 76 -105q47 0 91 34t69 104q-4 45 -4 137q0 72 18 137q-102 -25 -176 -105.5t-74 -201.5z" />
<glyph unicode="A" horiz-adv-x="1423" d="M-41 616q0 61 104.5 127t272.5 95q121 307 298 509.5t396 202.5q199 0 290 -108.5t91 -282.5q0 -109 -34 -240t-75.5 -230t-75.5 -199.5t-34 -153.5q0 -55 9 -81t38 -26q37 0 106.5 63.5t130 127t74.5 63.5q37 0 37 -77q0 -135 -155.5 -273.5t-315.5 -138.5 q-213 0 -213 217q0 141 92 426q-375 12 -411 12h-29q-37 -221 -37 -477q0 -111 -84 -152q-106 -51 -151 -51q-102 0 -103 199q0 176 84 459q-254 -31 -278 -31q-27 0 -27 20zM600 854l465 -6q51 172 51 239q0 86 -32 135.5t-93 49.5q-270 0 -391 -418z" />
<glyph unicode="B" horiz-adv-x="1449" d="M31 262q0 33 47 33q33 0 135 -27v2q0 162 48 385.5t137 404.5t186 181q26 0 26 -103v-8q0 -113 -54 -360.5t-54 -275.5l-21 -310q119 -32 183 -32h4q96 0 167.5 27.5t106.5 71.5t50.5 88t15.5 89q0 209 -95 301q-47 -10 -79 -10q-193 0 -193 100q0 94 190 94q45 0 87 -10 q68 63 67 205q0 238 -317 238q-127 0 -226.5 -36t-165 -72t-114.5 -36q-27 0 -27 23q0 29 42 80t112.5 105t186.5 93t243 39q311 0 449.5 -114.5t138.5 -294.5q0 -209 -205 -320q135 -80 190.5 -171t55.5 -236.5t-89.5 -250t-228.5 -152.5t-311 -48q-115 0 -272.5 39 t-286.5 112.5t-129 155.5z" />
<glyph unicode="C" horiz-adv-x="1124" d="M123 510q0 197 67.5 395.5t190.5 349.5q-102 123 -102 218q0 18 12 31.5t28 13.5q23 0 51.5 -25t64.5 -61.5t65 -55.5q203 172 452 172q313 0 314 -252q0 -111 -97.5 -183.5t-257.5 -72.5q-156 0 -321 66q-70 -113 -108 -254t-38 -264q0 -375 299 -375q119 0 241 55.5 t200 155.5q45 59 73 59q31 0 31 -77q0 -190 -175 -306t-404 -116q-276 0 -431 140t-155 386zM688 1233q106 -35 240 -35q111 0 110 68q0 80 -100 80q-137 0 -250 -113z" />
<glyph unicode="D" horiz-adv-x="1576" d="M31 354q0 25 32.5 25t202.5 -45q41 336 219 729q66 143 152 143q16 0 31.5 -34.5t15.5 -75.5q0 -76 -65.5 -356.5t-83.5 -473.5q135 -30 229 -30h6q205 0 335 187t130 435q0 483 -375 483q-121 0 -327.5 -70.5t-249.5 -70.5q-57 0 -58 29q0 51 94.5 124.5t248 131 t292.5 57.5q135 0 252 -37t217.5 -115.5t158.5 -220t58 -333.5q0 -162 -50 -311.5t-146.5 -272.5t-256 -195.5t-362.5 -72.5q-88 0 -213 36q-14 -38 -75 -38h-3q-102 0 -140 34.5t-42 118.5q-102 57 -164.5 116.5t-62.5 102.5z" />
<glyph unicode="E" horiz-adv-x="1083" d="M82 414q0 295 293 409q-150 104 -150 316q0 100 56 186q-115 129 -115 229q0 18 12 31.5t29 13.5q29 0 96.5 -69.5t97.5 -87.5q176 106 416 106q145 0 240.5 -58t95.5 -194q0 -111 -97.5 -183.5t-256.5 -72.5q-139 0 -275 99q-2 -10 -2 -33q0 -123 82 -199q31 6 68 6 q178 0 178 -90q0 -104 -205 -104q-45 0 -98 16q-123 -84 -123 -268q0 -238 332 -238q88 0 174 40t136 87t91 87t53 40q37 0 37 -77q0 -166 -182 -289t-432 -123q-252 0 -401.5 102.5t-149.5 317.5zM584 1266q111 -68 231 -68q111 0 111 68q0 80 -123 80q-139 0 -219 -80z " />
<glyph unicode="F" horiz-adv-x="1167" d="M31 1182q0 156 211 254t522 98q141 0 363.5 -5t250.5 -5q55 0 56 -43q0 -8 -7.5 -25.5t-18.5 -43.5t-17 -38q-31 -80 -117 -80h-94q-82 0 -197 1t-205 1q-16 -109 -98 -381q57 0 143 -2t146.5 -3t85.5 -1q33 0 32 -39q0 -8 -5 -24.5t-12 -39t-9 -34.5q-20 -76 -72 -76 q-14 0 -148 7.5t-163 7.5q-37 0 -55 -2q-106 -387 -107 -619q0 -121 -235 -121q-25 0 -39.5 12.5t-21.5 42t-8 58.5t-1 86q0 168 88 506q-127 -16 -197 -17q-27 0 -26 21q0 51 68.5 102t205.5 88q74 256 150 428q-55 -2 -105.5 -14t-82 -23.5t-68.5 -37t-53.5 -38t-49 -44 t-43.5 -39.5q-8 -8 -20 -8q-18 0 -32.5 25.5t-14.5 64.5z" />
<glyph unicode="G" horiz-adv-x="1376" d="M123 489q0 324 164 615q-111 127 -111 225q0 18 12.5 31.5t28.5 13.5q20 0 46 -20.5t60.5 -55t57.5 -53.5q238 303 571 303q358 0 359 -280q0 -162 -123 -266.5t-338 -104.5q-154 0 -324 68q-82 -205 -82 -398q0 -313 299 -313q94 0 166 68q2 14 7.5 57t9.5 68.5t12 66.5 t17.5 65.5t23.5 50t32.5 38t41.5 12.5q55 0 106 -78t51 -125q0 -104 -73 -352q98 72 184 162t129 140t61 50q29 0 29 -71q0 -127 -133 -276.5t-346 -235.5q-20 -53 -47 -140q-47 -141 -171 -228t-317 -87q-147 0 -260.5 73.5t-113.5 206.5q0 49 35.5 86t116.5 66t148.5 45 t195.5 42t192 40q14 41 24 88q-82 -61 -202 -61q-240 0 -389.5 109.5t-149.5 354.5zM360 -326q0 -41 51.5 -59t112.5 -18q139 0 244 208q-76 -20 -157 -37.5t-118.5 -25.5t-73.5 -19.5t-47.5 -21.5t-11.5 -27zM594 1104q111 -49 272 -49q96 0 156.5 52t60.5 130 q0 49 -39.5 79t-105.5 30q-199 0 -344 -242z" />
<glyph unicode="H" horiz-adv-x="1466" d="M31 1182q0 78 70.5 137t183 91t229.5 47.5t236 15.5h4q20 0 42.5 -18.5t22.5 -55.5q0 -35 -14 -80t-35 -68q-12 -84 -102 -397q156 0 401 -4q92 385 188 541q29 45 81.5 94t91.5 49q26 0 26 -103v-8q0 -74 -46 -322.5t-91 -549.5t-45 -504q0 -57 -82 -57q-127 0 -175 49 t-48 170q0 147 53 430q-301 10 -322 10q-61 0 -92 -2q-92 -350 -92 -557q0 -121 -235 -121q-25 0 -39.5 12.5t-21.5 42t-8 58.5t-1 86q0 137 74 446q-133 -18 -183 -18q-27 0 -26 20q0 49 70.5 105.5t191.5 89.5q78 266 151 430q-111 -2 -187.5 -23.5t-112 -45t-91.5 -72.5 q-8 -8 -20 -8q-18 0 -32.5 25.5t-14.5 64.5z" />
<glyph unicode="I" horiz-adv-x="671" d="M133 209q0 186 101.5 595t187.5 597q66 143 172 143q27 0 47.5 -33.5t20.5 -76.5q0 -74 -56.5 -325t-112 -555t-55.5 -507q0 -57 -82 -57q-127 0 -175 49t-48 170z" />
<glyph unicode="J" horiz-adv-x="962" d="M-287 -260q0 27 13.5 53.5t45 52t60.5 47t86 48t93 44t111 45t111.5 41t118.5 42.5q8 41 20.5 125t18.5 116q27 188 97.5 448.5t142.5 440.5q-80 51 -176 51q-104 0 -269.5 -40t-187.5 -40q-61 0 -61 46q0 39 71.5 92t207 97t278.5 44q55 0 110 -5t132 -20.5t124 -53.5 t47 -93q0 -174 -182 -1069q236 94 299 166q51 59 84 59q29 0 29 -78q0 -162 -453 -354q-18 -90 -61 -182q-156 -424 -502 -424q-172 0 -290 75.5t-118 225.5zM-78 -285q0 -49 61.5 -83.5t135.5 -34.5q123 0 194 309q-41 -14 -88 -30.5t-76.5 -26t-63.5 -21.5t-53.5 -20.5 t-40 -17.5t-31.5 -16t-20.5 -17.5t-13.5 -19.5t-4 -22z" />
<glyph unicode="K" horiz-adv-x="1390" d="M20 1182q1 22 7 47q31 125 253 184.5t461 59.5h4q20 0 43 -18.5t23 -55.5q0 -35 -14.5 -80t-34.5 -68q-12 -94 -78 -310t-121 -445.5t-55 -405.5q0 -121 -236 -121q-25 0 -39 12.5t-21 42t-8 58.5t-1 86q0 164 90 508t188 565q-160 -4 -236.5 -37t-156.5 -104 q-8 -8 -20 -8q-18 0 -33 25.5t-15 64.5zM666 764q0 39 39.5 60.5t99.5 21.5q52 0 92 -25q49 51 90 110.5t79 137.5t61.5 130t66.5 156.5t61 149.5q14 35 129 35q57 0 81 -35t24 -108q0 -176 -150.5 -392.5t-328.5 -316.5q33 -68 63.5 -192.5t59 -195.5t73.5 -71 q37 0 106.5 63.5t130 127t75.5 63.5q37 0 36 -77q0 -135 -155.5 -273.5t-315.5 -138.5q-82 0 -131 39t-69.5 111.5t-29.5 147.5t-21.5 177t-32.5 170q-57 10 -95 43t-38 82z" />
<glyph unicode="L" horiz-adv-x="1212" d="M20 195q0 102 75 156.5t198 54.5q63 0 119 -7q0 246 55 488q-70 35 -117 79t-47 76q0 18 8 37t21 19q29 0 91 -27t89 -33q80 236 211 373t301 137q324 0 324 -272q0 -66 -27 -131.5t-88.5 -135t-189.5 -115.5t-304 -50q-22 -165 -22 -388v-20q0 -57 -15 -129 q8 -4 39 -20.5t42.5 -21.5t38 -17t43 -16.5t42 -11.5t50 -9t51.5 -2q47 0 101 43t94 94t79 94t57 43q31 0 31 -77q0 -137 -136 -274.5t-329 -137.5q-135 0 -317 108q-127 -137 -322 -137q-123 0 -184.5 62.5t-61.5 167.5zM219 182.5q0 -28.5 20.5 -43t49.5 -14.5 q86 0 108 90q-57 29 -104 29q-31 0 -52.5 -16.5t-21.5 -45zM770 1020q143 12 246.5 83t103.5 142q0 103 -100 103q-172 0 -250 -328z" />
<glyph unicode="M" horiz-adv-x="1947" d="M0 1280q0 111 102.5 183.5t245.5 72.5q129 0 177 -72.5t53 -208.5q154 285 383 285q90 0 151.5 -29.5t92 -87t43 -122t12.5 -152.5v-16q133 184 315 184q258 0 258 -311q0 -143 -61.5 -400.5t-61.5 -298.5q0 -78 53 -78q37 0 106.5 63.5t130 127t75.5 63.5q37 0 36 -77 q0 -135 -155.5 -273.5t-315.5 -138.5q-102 0 -156 58.5t-54 148.5q0 80 78.5 354t78.5 383q0 98 -59 98q-78 0 -173 -121.5t-164 -305t-75 -347.5q12 -78 12 -112q0 -76 -64.5 -128.5t-143.5 -52.5q-45 0 -69 44t-24 116q0 76 99.5 430t99.5 518q0 184 -104 185 q-84 0 -163 -85t-134.5 -220.5t-91 -255t-60.5 -236.5q0 -6 -1 -19.5t-1 -19.5q39 -195 39 -254q0 -111 -84 -152q-106 -51 -152 -51q-102 0 -102 199q0 168 73.5 572.5t73.5 418.5q0 166 -83 166q-37 0 -99.5 -51t-103.5 -51q-33 0 -33 57z" />
<glyph unicode="N" horiz-adv-x="1415" d="M0 1280q0 111 102.5 183.5t245.5 72.5q139 0 185.5 -83t46.5 -239v-14q176 340 442 340q199 0 290 -108.5t91 -282.5q0 -137 -54.5 -305t-109.5 -306.5t-55 -201.5q0 -106 47 -107q35 0 110.5 63.5t126.5 131.5q47 59 74 59q37 0 37 -77q0 -135 -155.5 -273.5 t-315.5 -138.5q-213 0 -213 217q0 137 106.5 458.5t106.5 407.5t-32 135.5t-93 49.5q-96 0 -187 -92.5t-156 -230.5t-108 -271t-61 -242q39 -195 39 -254q0 -111 -84 -152q-106 -51 -152 -51q-102 0 -102 199q0 168 73.5 572.5t73.5 418.5q0 166 -83 166q-37 0 -99.5 -51 t-103.5 -51q-33 0 -33 57z" />
<glyph unicode="O" horiz-adv-x="1738" d="M143 612q0 242 99.5 453t292 344t440.5 133q195 0 323.5 -67.5t128.5 -143.5q0 -22 -56 -22h-5q-10 0 -143 18.5t-265 18.5q-147 0 -263.5 -102.5t-173 -250t-56.5 -303.5q0 -203 94 -318.5t262 -115.5q207 0 343 97.5t202 262.5q-147 18 -228 111.5t-81 247.5 q0 117 76.5 197.5t195.5 80.5q135 0 204 -96t69 -246q0 -35 -5 -96q18 8 41 22.5t42.5 22.5t39.5 8q29 0 29 -34q0 -72 -47 -124.5t-129 -78.5q-63 -301 -263 -474t-509 -173q-168 0 -297 52t-206 142t-116 199.5t-39 234.5zM1319 993q0 -113 98 -168q6 55 6 115 q0 133 -61 133q-43 0 -43 -80z" />
<glyph unicode="P" horiz-adv-x="1253" d="M123 1226q0 34 67 113q66 76 213.5 139.5t303.5 63.5q313 0 470.5 -136t157.5 -335q0 -203 -145.5 -362.5t-362.5 -159.5q-219 0 -219 92q0 27 42 37t101.5 21.5t119 39t101.5 110.5t42 218t-92.5 207t-266.5 72q-127 0 -226 -36t-164.5 -72t-114.5 -36q-27 0 -27 24z M164 168q0 197 81 494.5t183 461.5q76 117 143 117q27 0 27 -111q0 -113 -54.5 -370.5t-54.5 -286.5l-20 -383q0 -121 -236 -121q-25 0 -39 12.5t-21 42t-8 58.5t-1 86z" />
<glyph unicode="Q" horiz-adv-x="1622" d="M20 197q0 98 90.5 165.5t262.5 67.5q156 0 257 -57.5t185 -157.5q190 96 296 274.5t106 409.5q0 199 -100.5 301.5t-248.5 102.5q-207 0 -339 -134.5t-132 -363.5q0 -66 19.5 -144.5t19.5 -93.5q0 -23 -22 -22q-90 0 -159 92t-69 250q0 156 60.5 282.5t161 205.5 t224.5 121t257 42q174 0 320.5 -66.5t243.5 -213t97 -347.5q0 -346 -153.5 -572t-403.5 -339q88 -88 207 -88q70 0 159 7t105 7q45 0 45 -20q0 -25 -32.5 -60.5t-114.5 -68.5t-191 -33q-236 0 -383 182q-156 -41 -319 -41q-211 0 -330 82t-119 230zM266 188q0 -29 44.5 -45 t97.5 -16q109 0 215 23q-92 96 -211 96q-59 0 -102.5 -15.5t-43.5 -42.5z" />
<glyph unicode="R" horiz-adv-x="1333" d="M123 1225q0 29 41 79t110.5 104t186.5 94t246 40q154 0 277.5 -37t211.5 -133t88 -242q0 -178 -93 -292.5t-233 -167.5q29 -66 60 -188t59.5 -187.5t71.5 -65.5q37 0 106.5 63.5t130 127t74.5 63.5q37 0 37 -77q0 -135 -155.5 -273.5t-315.5 -138.5q-82 0 -131 39 t-69.5 111.5t-30 147.5t-21.5 177t-33 170q-57 10 -95 43t-38 82q0 39 40 60.5t100 21.5q53 0 96 -27q63 53 96 119t33 178q0 104 -78 167t-238 63q-106 0 -192 -23t-131 -49.5t-94.5 -49t-89.5 -22.5q-27 0 -27 23zM143 168q0 190 89.5 488t195.5 468q63 96 143 97 q27 0 27 -91q0 -113 -64.5 -370.5t-64.5 -286.5v-301q0 -111 -84 -152q-106 -51 -152 -51q-90 0 -90 199z" />
<glyph unicode="S" horiz-adv-x="1167" d="M51 379q0 129 82 250t180 121q74 0 74 -45q0 -41 -20.5 -129.5t-20.5 -143.5q0 -178 152 -178q104 0 173.5 52t69.5 161q0 78 -43 145.5t-103 121.5t-120.5 110.5t-103.5 138.5t-43 180q0 182 118.5 283.5t288.5 101.5q135 0 226.5 -78.5t91.5 -232.5q0 -102 -70 -178 t-180 -94q138 -114 184 -172q98 -125 98 -300q0 -154 -93 -272.5t-230 -176.5t-283 -58q-182 0 -305 99t-123 294zM565 1276q39 -137 178 -262q45 43 81 109.5t36 121.5q0 49 -40 76t-97 27q-109 0 -158 -72z" />
<glyph unicode="T" horiz-adv-x="1130" d="M61 1212q0 29 42 80t114 105.5t187.5 93.5t242.5 39q141 0 393 -3t281 -3q55 0 55 -43q0 -8 -7 -25.5t-18.5 -43.5t-17.5 -38q-31 -80 -116 -80q-18 0 -85 2t-165.5 5.5t-151.5 5.5q-6 -82 -47 -307.5t-76 -473t-35 -436.5q0 -121 -235 -121q-25 0 -39 12.5t-21.5 42 t-8.5 58.5t-1 86q0 188 87 567t182 570q-135 -10 -310.5 -62.5t-222.5 -52.5q-27 0 -27 22z" />
<glyph unicode="U" horiz-adv-x="1415" d="M0 1280q0 111 102.5 183.5t245.5 72.5q94 0 156.5 -56.5t82 -123t19.5 -135.5q0 -121 -70.5 -397.5t-70.5 -432.5q0 -57 33.5 -97t109.5 -40q100 0 182 88t127.5 206t69.5 255l12 92q0 41 -4 224.5t-4 203.5q0 94 83 154.5t171 60.5q35 0 46.5 -50t11.5 -157 q0 -45 -52.5 -401.5t-52.5 -513.5q0 -186 51 -187q45 0 166 124t135 124q29 0 29 -71q0 -137 -144.5 -274.5t-308.5 -137.5q-100 0 -132.5 78t-35.5 239q-137 -317 -407 -317q-188 0 -292.5 94t-104.5 285q0 45 82.5 367.5t82.5 418.5q0 166 -83 166q-37 0 -99.5 -51 t-103.5 -51q-33 0 -33 57z" />
<glyph unicode="V" horiz-adv-x="1347" d="M0 1280q0 111 102.5 183.5t245.5 72.5q94 0 156.5 -56.5t82 -123t19.5 -135.5q0 -121 -70.5 -397.5t-70.5 -432.5q0 -57 33.5 -97t109.5 -40q111 0 199 53t145.5 148.5t93 207t56.5 246.5q-166 10 -255 105.5t-89 257.5q0 117 76.5 197.5t195.5 80.5q137 0 205 -90 t68 -252q0 -63 -3 -94q16 6 40 20.5t42.5 22.5t38.5 8q29 0 29 -35q0 -137 -156 -194q-10 -145 -32.5 -267t-75.5 -252t-131 -219t-207 -146.5t-297 -57.5q-188 0 -292.5 94t-104.5 285q0 45 82.5 367.5t82.5 418.5q0 166 -83 166q-37 0 -99.5 -51t-103.5 -51q-33 0 -33 57z M1020 1290q0 -115 100 -170q4 78 4 117q0 133 -61 133q-43 0 -43 -80z" />
<glyph unicode="W" horiz-adv-x="2105" d="M0 1280q0 109 103.5 182.5t244.5 73.5t199.5 -90t58.5 -227q0 -59 -70.5 -360.5t-70.5 -469.5q0 -55 33.5 -95t109.5 -40q180 0 344 215q-82 297 -82 651q0 141 68 223t207 82q106 0 163.5 -60t57.5 -163q0 -125 -51 -326.5t-144 -386.5q88 -237 233 -237h1 q88 0 161.5 60.5t126 164t87.5 209t59 227.5q-150 18 -236.5 125t-86.5 234q0 117 76.5 197.5t195.5 80.5q272 0 272 -346q0 -55 -2 -90q16 6 40 20.5t42.5 22.5t38.5 8q29 0 29 -35q0 -68 -43 -118.5t-119 -77.5q-12 -127 -35.5 -243t-76 -249t-125 -227t-191.5 -157.5 t-268 -63.5q-199 0 -324 264q-209 -264 -475 -264q-188 0 -292.5 94t-104.5 285q0 45 82.5 367.5t82.5 418.5q0 166 -83 166q-37 0 -99.5 -51t-103.5 -51q-33 0 -33 57zM1075 1102q0 -170 29 -348q78 201 78 393q0 43 -14.5 74.5t-39.5 31.5h-1q-52 0 -52 -151zM1778 1290 q0 -111 96 -166q8 68 8 113q0 47 -15.5 90t-45.5 43q-43 0 -43 -80z" />
<glyph unicode="X" horiz-adv-x="1241" d="M-61 25q0 6 6 13t22.5 19.5t24.5 20.5q369 334 579 655q-45 217 -73 338q-59 -16 -133 -16q-135 0 -238.5 58t-103.5 179q0 115 75.5 186.5t198.5 71.5q193 0 310.5 -128t187.5 -345q184 289 278 445q14 23 49 22q61 0 137 -22.5t76 -61.5q0 -129 -465 -684 q8 -37 18.5 -94t17.5 -92t17.5 -83t18.5 -78t18.5 -65.5t22.5 -57t25.5 -41t31 -28t35.5 -8.5q45 0 166 124t135 124q29 0 29 -71q0 -137 -144.5 -274.5t-308.5 -137.5q-117 0 -192.5 128t-130.5 353q-78 -104 -132.5 -169.5t-137.5 -151.5t-165.5 -130t-160.5 -44 q-43 0 -68.5 13t-25.5 32zM285 1311q0 -41 52 -83t132 -57q-61 199 -147 199q-37 0 -37 -59z" />
<glyph unicode="Y" horiz-adv-x="1325" d="M0 1280q0 111 102.5 183.5t245.5 72.5q94 0 156.5 -51t82 -110.5t19.5 -123.5q0 -109 -70.5 -358.5t-70.5 -390.5q0 -123 108 -123q121 0 211 143q29 127 96.5 388t84.5 339q51 244 139 244q98 0 146 -45t48 -154q0 -102 -73 -241q-76 -451 -148 -801q236 94 299 166 q51 59 84 59q29 0 29 -78q0 -162 -453 -354q-16 -70 -36.5 -135.5t-66.5 -155.5t-104.5 -155.5t-151.5 -112.5t-204 -47q-172 0 -289.5 75.5t-117.5 225.5q0 35 23.5 69.5t76.5 69.5t101 61.5t138.5 61.5t144.5 55.5t159 57.5l14 4q0 59 10 127q-131 -72 -280 -72 q-145 0 -222 90t-77 252q0 100 82.5 337t82.5 335q0 137 -83 137q-37 0 -99.5 -51t-103.5 -51q-33 0 -33 57zM274 -285q0 -49 61.5 -83.5t135.5 -34.5q123 0 207 313q-51 -18 -111.5 -39t-94.5 -32t-73 -25.5t-57 -23.5t-36.5 -21.5t-25 -24.5t-6.5 -29z" />
<glyph unicode="Z" horiz-adv-x="1175" d="M-10 195q0 102 74.5 156.5t197.5 54.5t234 -29q80 137 137 276q-49 -4 -130 -14t-136.5 -16.5t-90.5 -6.5q-27 0 -26 21q0 76 131 138.5t328 90.5q23 74 59.5 206t54.5 192q-93 30 -169 30h-5q-104 0 -269 -50t-187 -50q-62 0 -62 46q1 44 73 102t205.5 104.5t278.5 46.5 q57 0 120.5 -5t153 -20.5t146.5 -53.5t57 -93q0 -147 -129 -451q16 0 39 1t36 1t29.5 -1t26 -3t17.5 -6t12 -12t4 -21q0 -8 -5 -24.5t-12 -39t-9 -34.5q-20 -76 -72 -76q-4 0 -162 11q-111 -217 -225 -381q143 -76 262 -76q47 0 102.5 43t94 94t77.5 94t58 43q31 0 30 -77 q0 -137 -136 -274.5t-329 -137.5q-133 0 -311 106l-8 -6q-123 -129 -319 -129q-121 0 -183.5 62.5t-62.5 167.5zM188 182.5q0 -28.5 20.5 -43t49.5 -14.5q45 0 123 84q-74 35 -119 35q-31 0 -52.5 -16.5t-21.5 -45z" />
<glyph unicode="[" horiz-adv-x="686" d="M102 -451v2169h502v-119h-362v-1931h362v-119h-502z" />
<glyph unicode="\" horiz-adv-x="995" d="M246 1370q0 51 39 109.5t69 58.5q15 0 21 -16l522 -1446q6 -18 6 -35q0 -45 -37 -98.5t-78 -53.5q-9 0 -12 7q-18 55 -49 147t-41 122t-35.5 103.5t-55.5 149.5t-76 195.5t-120 306.5q-154 391 -153 450z" />
<glyph unicode="]" horiz-adv-x="686" d="M102 -332h363v1931h-363v119h502v-2169h-502v119z" />
<glyph unicode="^" horiz-adv-x="1064" d="M154 743l358 517h41l358 -517l-102 -71l-281 401l-276 -397z" />
<glyph unicode="_" horiz-adv-x="901" d="M0 -160h901v-119h-901v119z" />
<glyph unicode="`" horiz-adv-x="1024" d="M291 1511q0 55 17.5 78t74.5 23q127 0 135 -74q18 -231 191 -346q25 -16 24 -41q0 -14 -41 -14q-160 0 -280.5 98t-120.5 276z" />
<glyph unicode="a" d="M51 307q0 268 152 453q80 94 186.5 156.5t224.5 62.5q58 0 123 -12q43 -10 62 -21q29 59 69 60q61 0 129 -64.5t68 -116.5q-35 -78 -84 -161q-16 -88 -16 -267q0 -168 43 -168q37 0 106.5 63.5t130 127t74.5 63.5q37 0 37 -77q0 -135 -156 -273.5t-315 -138.5 q-106 0 -146 190q-122 -200 -364 -200h-2q-143 0 -232.5 88t-89.5 235zM352 360q0 -157 117 -157q78 0 148.5 60.5t105.5 182.5q6 244 41 394q-166 -31 -289 -158t-123 -322z" />
<glyph unicode="b" horiz-adv-x="1058" d="M82 1083q0 37 27 37q29 0 94 -20.5t86 -24.5q111 203 248 327t276 124q137 0 214 -67.5t77 -172.5q0 -90 -50 -159.5t-140.5 -110.5t-195 -63.5t-229.5 -30.5q-96 -238 -96 -510q0 -246 144 -246q120 0 120 169v11.5t-0.5 11t-1.5 10.5t-2 10.5t-2 9.5q-6 24 -22.5 49.5 t-23.5 35.5t-34.5 40t-29.5 32q18 68 67 134t94 66q70 0 109 -69.5t51 -151.5t41 -151.5t80 -69.5q39 0 77 44t66.5 88t44.5 44q23 0 42.5 -32.5t19.5 -65.5q0 -63 -66 -151.5t-170 -88.5q-94 0 -149 41q-84 -200 -345 -200h-3q-76 0 -144.5 18t-130 60t-97.5 119t-36 181 q0 293 141 603q-66 29 -108.5 62.5t-42.5 57.5zM543 1038q139 25 237.5 80.5t98.5 134.5q-1 72 -50 72q-55 0 -136 -79t-150 -208z" />
<glyph unicode="c" horiz-adv-x="747" d="M41 307q0 285 171 480.5t390 195.5q141 0 141 -125q0 -70 -28.5 -114t-71.5 -44q-27 0 -60.5 30t-58.5 30q-86 0 -134 -123t-48 -277q0 -74 57.5 -105.5t116.5 -31.5q55 0 117.5 41t104.5 89t81 89t55 41q37 0 37 -77q0 -51 -32.5 -119t-94 -136.5t-168 -115.5 t-233.5 -47q-139 0 -240.5 82t-101.5 237z" />
<glyph unicode="d" d="M51 307q0 268 152 453q80 94 186.5 156.5t224.5 62.5q74 0 123 -12l47 -13q51 252 124 413t147 161q57 0 105 -75t48 -122q0 -37 -8 -71.5t-15 -57t-27.5 -59.5t-28 -48.5t-38 -54.5t-34.5 -49q-37 -133 -66.5 -328.5t-29.5 -291.5q0 -141 47 -142q37 0 106.5 63.5 t130 127t74.5 63.5q37 0 37 -77q0 -135 -156 -273.5t-315 -138.5q-111 0 -148 184q-122 -194 -362 -194h-2q-143 0 -232.5 88t-89.5 235zM352 360q0 -157 116 -157h1q76 0 144.5 57t105.5 174q2 182 43 406q-164 -31 -287 -159t-123 -321z" />
<glyph unicode="e" horiz-adv-x="856" d="M41 307q0 287 162 481.5t381 194.5q113 0 175 -54.5t62 -142.5q0 -70 -26.5 -121t-82 -87.5t-105.5 -59t-134 -54.5t-131 -52v-52q0 -76 60.5 -106.5t136.5 -30.5q92 0 177 40t133 87t88 87t54 40q29 0 29 -71q0 -39 -18.5 -88.5t-64.5 -108.5t-112.5 -107.5t-177 -81 t-244.5 -32.5q-152 0 -257 81t-105 238zM356 553q25 16 66 40.5t60.5 38t43 33t32.5 40t9 45.5q0 51 -63 51q-109 0 -148 -248z" />
<glyph unicode="f" horiz-adv-x="854" d="M10 -371q0 324 64.5 669t179.5 624q-68 29 -111 62.5t-43 57.5q0 37 27 37q29 0 89 -20.5t87 -24.5q233 492 526 492q131 0 180.5 -62.5t49.5 -177.5q0 -174 -162 -286.5t-395 -122.5q-59 -164 -92 -336q77 30 204 30q31 -239 151 -239h1q43 0 81 24.5t59.5 55t43 55.5 t33.5 25q35 0 35 -66q0 -125 -61.5 -203t-188.5 -78q-59 0 -110.5 11.5t-82 26t-52 29.5t-29.5 27l-9 11q45 -428 45 -545q0 -266 -313 -266q-104 0 -155.5 53t-51.5 137zM258 -326q0 -77 46 -77h1q27 0 46.5 39t19.5 98q0 166 -39 416q-35 -147 -54.5 -291t-19.5 -185z M555 1010q76 33 111.5 50t87 51t73 73t21.5 88q0 53 -37 53q-43 0 -114.5 -83t-141.5 -232z" />
<glyph unicode="g" horiz-adv-x="1173" d="M51 307q0 268 152 453q80 94 186.5 156.5t224.5 62.5q57 0 127 -14.5t105 -32.5q26 90 92 90q55 0 106.5 -78t51.5 -125q0 -139 -183 -743q102 80 191.5 183t135.5 160.5t69 57.5q29 0 28 -71q0 -125 -146.5 -298.5t-350.5 -265.5q-25 -82 -41.5 -128t-51 -106.5 t-74.5 -92t-106.5 -54t-152.5 -22.5q-133 0 -229.5 79t-96.5 193q0 37 13.5 64.5t43 47t61.5 34t85 27t99 20.5t117 21.5t124 25.5q10 35 33 137q-111 -104 -291 -104q-143 0 -232.5 88t-89.5 235zM276 -313q0 -41 45.5 -65.5t90.5 -24.5q82 0 155 165q-49 -10 -104 -18 t-84 -12t-55.5 -10.5t-37 -14.5t-10.5 -20zM352 360q0 -157 117 -157q72 0 138.5 52t103.5 157q37 168 110 432q-109 -14 -212 -71.5t-180 -167t-77 -245.5z" />
<glyph unicode="h" horiz-adv-x="1132" d="M92 168q0 217 13.5 364.5t88 404.5t220.5 538q29 55 82 55q55 0 90 -75t35 -126t-16.5 -105.5t-36 -89t-56.5 -98t-57 -102.5l-31 -148q117 195 324 195q137 0 209.5 -62.5t72.5 -173.5q0 -115 -43 -285.5t-43 -195.5q0 -35 23 -35q45 0 165.5 124t135.5 124q29 0 28 -71 q0 -137 -144 -274.5t-308 -137.5t-164 262q0 119 31.5 251t31.5 181q0 74 -92 74q-80 0 -165 -136.5t-105 -271.5q12 -127 12 -182q0 -113 -71 -152q-90 -51 -127 -51q-45 0 -74 53.5t-29 145.5z" />
<glyph unicode="i" horiz-adv-x="595" d="M102 377q0 213 65.5 427t168.5 214q57 0 89 -72t32 -125q-2 -100 -50.5 -290.5t-48.5 -237.5q0 -29 20.5 -46.5t51.5 -17.5q45 0 166 124t135 124q29 0 29 -71q0 -137 -144.5 -274.5t-308.5 -137.5q-205 0 -205 383zM336 1380q0 72 43 165t104 93q59 0 105.5 -85 t46.5 -136q0 -115 -75 -174t-169 -59q-55 84 -55 196z" />
<glyph unicode="j" horiz-adv-x="573" d="M-512 -289q0 31 12.5 58.5t29.5 49t52 42t63.5 35t81 34t88 30.5t101.5 31.5t104 33.5q12 63 34 192t32 168q33 131 92.5 329.5t79.5 250.5q23 57 80 57q55 0 106.5 -78t51.5 -125q0 -127 -154 -649q98 61 183 140t127 123t57 44q29 0 28 -71q0 -117 -135 -255.5 t-338 -230.5l-53 -166q-27 -76 -52.5 -126t-70.5 -97t-112.5 -69.5t-161.5 -22.5q-133 0 -229.5 79t-96.5 193zM-324 -313q0 -41 45.5 -65.5t90.5 -24.5q92 0 155 210q-49 -18 -103 -36.5t-84 -27.5t-56.5 -19.5t-37 -18.5t-10.5 -18zM344 1368q0 96 48 175t138 79 q127 0 172 -96q-4 -121 -98 -236.5t-207 -115.5q-53 84 -53 194z" />
<glyph unicode="k" horiz-adv-x="1044" d="M92 168q0 289 88 692.5t228 614.5q37 55 81 55q55 0 105.5 -78t50.5 -123q0 -51 -19.5 -105.5t-42 -89t-66.5 -98t-68 -102.5l-21 -172q109 219 326 219q129 0 199.5 -62.5t70.5 -173.5q0 -131 -120 -213.5t-245 -82.5q57 -219 187 -220q59 0 115.5 39t91 85t70.5 85 t57 39q29 0 28 -71q0 -139 -135 -275.5t-297 -136.5q-66 0 -122 38t-102 111.5t-78 140.5t-71 169q0 -39 -7 -137.5t-7 -143.5q0 -109 -31 -133q-88 -70 -170 -70q-96 0 -96 199zM422 504q137 10 226 60t89 124t-80 74q-59 0 -124.5 -76t-110.5 -182z" />
<glyph unicode="l" horiz-adv-x="778" d="M82 401q0 260 78 513t235.5 432.5t358.5 179.5q88 0 138 -48t50 -135q0 -88 -56.5 -189t-129 -181t-190 -210t-193.5 -228v-82q0 -111 48 -166.5t128 -55.5q164 0 309 187q45 59 74 59t29 -71q0 -139 -140.5 -275.5t-302.5 -136.5q-186 0 -311 101.5t-125 305.5zM399 791 q70 109 159 216t126 161.5t37 111.5q0 45 -35 45q-72 0 -159 -147.5t-128 -386.5z" />
<glyph unicode="m" horiz-adv-x="1574" d="M92 168q0 307 26.5 469t135.5 328q37 57 80 57q45 0 87 -53.5t62 -110.5q100 123 232 123q90 0 158.5 -58.5t68.5 -146.5v-22q124 155 303 155h2q109 0 167.5 -56t58.5 -157q0 -106 -40 -264t-40 -176q0 -27 16 -27q45 0 166 124t135 124q29 0 29 -71 q0 -137 -144.5 -274.5t-308.5 -137.5q-147 0 -147 268q0 72 22.5 187.5t22.5 173.5q0 67 -76 67h-2q-57 0 -120.5 -104.5t-92.5 -220.5v-5q0 -61 21.5 -138t21.5 -99q0 -41 -38 -74t-136 -72q-27 -10 -47 -10q-90 0 -90 201q0 137 15 318.5t15 205.5q0 70 -63.5 70 t-147.5 -149.5t-84 -252.5q0 -61 21.5 -138t21.5 -99q0 -41 -37.5 -74t-136.5 -72q-27 -10 -47 -10q-90 0 -90 201z" />
<glyph unicode="n" horiz-adv-x="1099" d="M92 168q0 309 26.5 470t135.5 327q37 57 80 57q39 0 77 -43t62 -98q96 100 242 100q137 0 209.5 -62.5t72.5 -173.5q0 -115 -43 -285.5t-43 -195.5q0 -35 23 -35q45 0 166 124t135 124q29 0 29 -71q0 -137 -144.5 -274.5t-308.5 -137.5t-164 262q0 119 32 251t32 181 q0 74 -93 74q-76 0 -153.5 -126t-104.5 -261v-15q0 -61 21.5 -138t21.5 -99q0 -41 -37.5 -74t-136.5 -72q-27 -10 -47 -10q-90 0 -90 201z" />
<glyph unicode="o" horiz-adv-x="1112" d="M51 387q0 242 155.5 419t405.5 177q113 0 209.5 -38t96.5 -83q0 -33 -160 -33q-176 0 -291 -114.5t-115 -294.5q0 -96 56.5 -156.5t162.5 -60.5q88 0 154 41q-145 100 -145 284q0 100 73.5 181.5t196.5 81.5q96 0 147.5 -61.5t51.5 -162.5q0 -102 -48 -213h13 q53 0 94 19.5t61.5 43t41 43t36.5 19.5q29 0 29 -73q0 -117 -74 -180.5t-182 -63.5q-70 0 -131 12q-166 -190 -393 -190q-219 0 -332 116.5t-113 286.5zM817 547q0 -82 53 -135q35 72 35 145q0 68 -45 68q-16 0 -29.5 -25.5t-13.5 -52.5z" />
<glyph unicode="p" horiz-adv-x="1126" d="M-82 -371q0 217 68.5 586t232.5 750q23 57 80 57q45 0 87 -53.5t63 -110.5q106 121 272 121q162 0 240.5 -87t78.5 -224q0 -160 -101 -312.5t-245 -208.5h25q106 0 213.5 57.5t163 111t92.5 102.5q45 59 73.5 59t28.5 -74q0 -113 -98 -223t-242 -166q-104 -41 -291 -41 q-117 0 -191.5 38t-74.5 120q0 16 4 36.5t10 33.5l5 12q162 0 245.5 123t83.5 307q0 45 -33.5 81t-82.5 36q-57 0 -122 -48t-108 -130q-86 -160 -106 -279q-23 -129 -52.5 -335t-49 -329.5t-29.5 -142.5q-31 -57 -74 -57q-57 0 -127 84q-39 45 -39 106z" />
<glyph unicode="q" horiz-adv-x="1173" d="M51 307q0 268 152 453q80 94 186.5 156.5t224.5 62.5q70 0 140.5 -18.5t85.5 -36.5l18 41q23 57 80 57q55 0 106.5 -79t51.5 -124q-2 -113 -77 -269.5t-91 -246.5l-13 -70q27 -6 54 -6q119 0 266 191q47 59 74 59q29 0 28 -71q0 -106 -91 -220t-222 -161q53 -158 53 -320 q0 -266 -313 -266q-104 0 -155.5 53t-51.5 137q0 176 37 408q-88 -53 -221 -53q-143 0 -232.5 88t-89.5 235zM352 360q0 -157 117 -157q98 0 172 86q63 276 168 555q-109 -12 -210 -69.5t-174 -167t-73 -247.5zM805 -326q0 -77 46 -77h1q27 0 46.5 39t19.5 98 q0 78 -14.5 150.5t-27.5 105.5l-14 33q-57 -250 -57 -349z" />
<glyph unicode="r" horiz-adv-x="935" d="M92 168q0 221 21.5 345t85.5 247q-94 88 -95 162q0 131 148 131q76 0 127 -70t65 -139q29 -10 78 -10q55 0 131 38.5t101 38.5q57 0 114 -174q-20 -84 -52 -193.5t-50 -178t-18 -101.5q0 -35 22 -35q45 0 166 124t135 124q29 0 29 -71q0 -141 -124 -276.5t-284 -135.5 q-92 0 -141 75.5t-49 186.5q0 213 96 406q-41 -18 -131 -19q-18 0 -51 4q-55 -229 -56 -287q0 -61 6.5 -159.5t6.5 -120.5q0 -33 -50.5 -73t-140.5 -40t-90 201z" />
<glyph unicode="s" horiz-adv-x="821" d="M-41 244q0 92 49 170t103 78q35 0 52 -33t31.5 -80t40 -95t92 -81t171.5 -33q-23 68 -79.5 134.5t-108.5 110.5t-93 112.5t-41 148.5q0 145 105.5 231t248.5 86q131 0 201 -51t70 -135q0 -106 -56.5 -178t-144.5 -101q51 -53 78 -84.5t52.5 -81t25.5 -92.5 q0 -137 -108.5 -211.5t-307.5 -74.5q-190 0 -285.5 75.5t-95.5 184.5zM424 797q0 -82 96 -185q82 90 82 142q0 63 -80 63z" />
<glyph unicode="t" horiz-adv-x="649" d="M41 817q0 53 10 84t43 70q66 0 111 2q98 315 201 315q59 0 86.5 -42t46.5 -124l-84 -147q188 -4 202.5 -4t18.5 -6.5t4 -26.5q0 -29 -18.5 -85t-38.5 -56q-12 0 -92 5t-113 5q-43 -254 -43 -436q0 -141 47 -142q39 0 140.5 63.5t148.5 125.5q45 59 73.5 59t28.5 -71 q0 -133 -173 -272.5t-341 -139.5q-96 0 -143 110.5t-47 290.5q0 184 49 402h-92q-25 0 -25 20z" />
<glyph unicode="u" horiz-adv-x="1091" d="M41 233q0 84 65 209l60 504q61 49 182 49q66 0 87.5 -52t21.5 -146q0 -78 -48.5 -246t-48.5 -268q0 -74 93 -74q53 0 99 49t75.5 128t48 153.5t29.5 146.5q-6 43 -7 178q0 137 213 137q49 0 64.5 -31.5t15.5 -101.5q0 -115 -44 -327.5t-44 -276.5q0 -35 23 -35 q45 0 165.5 124t135.5 124q29 0 28 -71q0 -137 -144 -274.5t-308 -137.5q-131 0 -150 180q-102 -184 -297 -184q-145 0 -230 61.5t-85 181.5z" />
<glyph unicode="v" horiz-adv-x="1032" d="M72 748q0 131 40 189t171 58q47 0 74.5 -29.5t27.5 -76.5q0 -127 -49 -299q2 -29 3 -73t2 -70.5t4 -60.5t9 -54.5t14.5 -40t23 -27.5t34.5 -8q68 0 190 240q-24 94 -24 208v9q0 109 50 185.5t171 76.5q63 0 109.5 -39t46.5 -133q0 -59 -33 -131t-123 -209 q39 -109 111 -109q53 0 94 19.5t61.5 43t41 43t36.5 19.5q29 0 29 -73q0 -115 -73 -176.5t-183 -61.5q-145 0 -232 127q-237 -311 -401 -311q-66 0 -121 172t-79.5 343t-24.5 249z" />
<glyph unicode="w" horiz-adv-x="1546" d="M72 748q0 131 40 189t171 58q47 0 74.5 -29.5t27.5 -76.5q0 -127 -49 -299q2 -35 4 -99.5t5 -96.5t10 -69.5t25.5 -53t47.5 -15.5q59 0 156 90q-72 174 -72 324q0 123 66.5 193.5t197.5 70.5q90 0 150.5 -52.5t60.5 -129.5q0 -164 -182 -394q59 -104 123 -104 q66 0 202 250q-24 88 -24 200v9q0 109 50 185.5t171 76.5q92 0 124 -45t32 -125q0 -127 -146 -363q37 -88 101 -88q53 0 94 19.5t61.5 43t41 43t36.5 19.5q29 0 29 -73q0 -115 -73 -176.5t-183 -61.5q-129 0 -217 115q-100 -131 -201.5 -215t-173.5 -84q-35 0 -90 59 t-107 152q-225 -211 -356 -211q-66 0 -121 172t-80.5 344t-25.5 248zM717 651q0 -49 18 -119q68 102 68 164q0 66 -43 66t-43 -111z" />
<glyph unicode="x" horiz-adv-x="1013" d="M133 74q0 4 34 44t105.5 127t139.5 177q-57 223 -117 223q-72 0 -110 41t-38 102q0 63 58.5 142.5t122.5 79.5q82 0 158.5 -81t134.5 -206l6 -21q156 186 196 261q12 23 43 22q49 0 100.5 -22.5t51.5 -61.5q0 -45 -36 -81t-125 -116.5t-171 -183.5q96 -291 162 -291 q45 0 166 124t135 124q29 0 29 -71q0 -137 -144.5 -274.5t-308.5 -137.5q-133 0 -250 221q-72 -111 -116.5 -167t-77.5 -56q-51 0 -99.5 26.5t-48.5 55.5z" />
<glyph unicode="y" horiz-adv-x="1095" d="M10 -289q0 37 13.5 65.5t45 50t64.5 38t89.5 31t102.5 24.5t120.5 25.5t127.5 27.5q27 111 39 177q-102 -141 -274 -142q-143 0 -224 60.5t-81 183.5q0 84 65 209l60 485q61 49 172 49q66 0 87 -52t21 -146q0 -78 -48 -237t-48 -259q0 -74 92 -74q74 0 117 49.5t74 143.5 q31 129 84 314.5t71 230.5q23 57 80 57q55 0 106.5 -78t51.5 -125q0 -143 -176 -723q100 76 189 174.5t134 152.5t66 54q29 0 29 -71q0 -125 -146.5 -298.5t-351.5 -265.5q-25 -82 -41 -128t-51 -106.5t-75 -92t-106.5 -54t-152.5 -22.5q-133 0 -229.5 79t-96.5 193z M199 -313q0 -41 45 -65.5t90 -24.5q98 0 174 167q-49 -10 -105.5 -18t-88 -12t-61.5 -9.5t-42 -14.5t-12 -23z" />
<glyph unicode="z" horiz-adv-x="958" d="M102 752q0 84 70.5 158.5t185.5 74.5q45 0 146.5 -47t161.5 -47q239 0 239 -85q0 -18 -2 -37t-6 -40q-8 -41 -17 -64l-10 -24q-18 -33 -50 -84t-129 -167t-193 -181q84 -23 165.5 -23t158.5 45t124 100.5t89 100.5t59 45q29 0 28 -71q0 -170 -173 -299.5t-421 -129.5 q-100 0 -205.5 37t-105.5 86q0 53 14 119q31 43 138.5 123t189.5 158t82 139q0 20 -96 20q-59 0 -185.5 -9t-152.5 -9q-51 0 -78 30.5t-27 80.5z" />
<glyph unicode="{" horiz-adv-x="993" d="M-6 623q0 25 31 36q92 57 157.5 160t65.5 182q0 70 -33 232t-33 240q0 141 103.5 203.5t269.5 62.5q106 0 233 -19.5t127 -42.5q0 -37 -70.5 -66.5t-135.5 -29.5q-35 0 -108 16.5t-136 18.5q-6 -23 -6 -45q0 -72 32.5 -225.5t32.5 -233.5q0 -106 -86 -247.5t-198 -235.5 q240 -209 239 -357q0 -55 -38 -195t-38 -196q0 -88 28 -179t87.5 -159.5t134.5 -68.5q23 0 64 10t74 10q55 0 55 -31q0 -45 -106.5 -74.5t-184.5 -29.5q-188 0 -308 138t-120 335q0 53 35 185.5t35 189.5q0 70 -50.5 154.5t-101.5 156.5t-51 105z" />
<glyph unicode="|" horiz-adv-x="946" d="M360 1540q4 27 35 27q33 0 85 -44t55 -81q8 -182 8 -488q0 -139 -2 -410.5t-2 -383.5q0 -59 2 -155.5t2 -129.5q0 -14 -33 -14q-49 0 -96 48t-47 85z" />
<glyph unicode="}" horiz-adv-x="993" d="M55 -580q0 37 71 67t136 30q250 0 250 106q0 72 -33 167t-33 175q0 109 87.5 268.5t197.5 255.5q-240 215 -239 359q0 53 37.5 184t37.5 185q0 88 -27.5 179t-87 159.5t-135.5 68.5q-23 0 -63.5 -10t-73.5 -10q-55 0 -55 30q0 45 106.5 75t184.5 30q188 0 308 -138.5 t120 -334.5q0 -53 -35 -174t-35 -179q0 -70 51.5 -144.5t101.5 -136t50 -93.5q0 -18 -31 -37q-90 -47 -156.5 -190.5t-66.5 -235.5q0 -70 32.5 -221.5t32.5 -229.5q0 -141 -103 -203.5t-269 -62.5q-106 0 -233.5 19.5t-127.5 41.5z" />
<glyph unicode="~" horiz-adv-x="1044" d="M102 553q53 150 246 149q61 0 178 -35.5t168 -35.5q113 0 148 74l100 -43q-53 -150 -246 -150q-59 0 -178 36t-168 36q-112 0 -147 -74z" />
<glyph unicode="&#xa1;" horiz-adv-x="1017" d="M82 -383q2 59 62.5 152.5t120 199t59.5 195.5q0 27 -10.5 95.5t-10.5 96.5q0 53 73 91t163 38t90 -127q0 -186 -85.5 -442t-224.5 -391q-35 -35 -81 -35q-55 0 -105.5 49t-50.5 78zM334 756q41 106 124 173.5t175 67.5q98 0 98 -98q0 -111 -67.5 -196t-151.5 -85 q-55 0 -102 39.5t-76 98.5z" />
<glyph unicode="&#xa2;" horiz-adv-x="911" d="M41 594q0 283 180 479.5t402 196.5h8q39 152 80 295q4 16 22 16q47 0 82 -54t35 -106q0 -31 -66 -192q55 -33 89 -78t34 -88q0 -70 -28.5 -114t-71.5 -44q-27 0 -115 60q-80 -246 -133 -449q63 16 133 81t118 119t64 54q37 0 37 -78q0 -63 -42 -143t-140 -159t-227 -105 l-70 -303q-4 -18 -24 -19q-47 0 -83 50t-36 112q0 55 33 154q-119 16 -200 96t-81 219zM342 647q0 -80 80 -119q104 281 153 508q-20 11 -30 11q-88 0 -145.5 -125t-57.5 -275z" />
<glyph unicode="&#xa3;" horiz-adv-x="1431" d="M20 195q0 102 75 156.5t198 54.5q63 0 119 -7q0 164 14 293l-250 -12q-12 0 -12 18q0 55 43 106.5t96 51.5h148q59 328 208.5 510t364.5 182q324 0 324 -272q0 -74 -53.5 -163t-100.5 -89q-74 0 -74 221q0 102 -100 103q-215 0 -279 -492h445q25 0 24.5 -35t-52.5 -88 t-85 -53q-182 4 -348 8q-8 -109 -8 -252v-18q-2 -43 -15 -111q8 -4 39 -20.5t42.5 -21.5t38 -17t43 -16.5t42 -11.5t50 -9t51.5 -2q47 0 101 43t94 94t79 94t57 43q31 0 31 -77q0 -137 -136 -274.5t-329 -137.5q-135 0 -317 108q-127 -137 -322 -137q-123 0 -184.5 62.5 t-61.5 167.5zM219 182.5q0 -28.5 20.5 -43t49.5 -14.5q86 0 108 90q-57 29 -104 29q-31 0 -52.5 -16.5t-21.5 -45z" />
<glyph unicode="&#xa4;" horiz-adv-x="1286" d="M61 70l203 202q-98 123 -98 318q0 193 98 315l-203 205l89 90l208 -209q117 76 285 76t285 -76l209 209l88 -90l-203 -205q98 -123 98 -315q0 -195 -98 -318l203 -202l-88 -90l-209 208q-117 -76 -285 -75.5t-285 75.5l-208 -208zM305 592q0 -360 338 -360.5t338 360.5 q0 356 -338 356t-338 -356z" />
<glyph unicode="&#xa5;" horiz-adv-x="1333" d="M-61 1280q0 111 102 183.5t246 72.5q94 0 156.5 -51t82 -110.5t19.5 -123.5q0 -197 35.5 -301t130.5 -164q63 145 168.5 374t105.5 231q66 143 172 143q16 0 42 -37t26 -74q0 -55 -41 -177t-119 -323.5t-121 -332.5h303q25 0 25 -35t-52.5 -88t-84.5 -53q-113 2 -244 6 l-21 -76h275q25 0 24.5 -35t-52.5 -88t-85 -53q-88 2 -198 4q-16 -104 -17 -186q0 -57 -82 -58q-127 0 -175 49.5t-48 169.5q0 20 2 31q-43 2 -92 2q-37 0 -148.5 -6t-138.5 -6q-12 0 -12 18q0 55 43 106.5t96 51.5h285l26 82h-49l-286 -12q-12 0 -13 18q0 55 43.5 106.5 t96.5 51.5h192q-186 102 -242.5 232t-56.5 366q0 137 -84 137q-37 0 -99.5 -51t-103.5 -51q-33 0 -32 57z" />
<glyph unicode="&#xa6;" horiz-adv-x="946" d="M410 -94v809h127v-809h-127zM410 848v799h127v-799h-127z" />
<glyph unicode="&#xa7;" horiz-adv-x="1026" d="M41 -115q0 55 104 56q31 0 135.5 -23.5t114.5 -23.5q14 0 15 18q0 82 -37 161t-80 133t-80 131t-37 155q0 145 120 271t265 152q-4 6 -51 83t-68.5 131.5t-21.5 103.5q0 137 112.5 219t260.5 82q76 0 122 -35t46 -69q0 -18 -34 -27.5t-75 -13t-75 -23.5t-34 -61 q0 -84 32 -158t69 -123t68.5 -130t31.5 -173q0 -154 -100.5 -259.5t-259.5 -152.5q80 -170 80 -291q0 -164 -101.5 -257t-263.5 -93q-106 0 -182 66.5t-76 150.5zM469 575q0 -35 20 -90q98 4 141.5 59.5t43.5 129.5q0 43 -14.5 73.5t-36.5 30.5q-154 -94 -154 -203z" />
<glyph unicode="&#xa8;" horiz-adv-x="1024" d="M150 1315q0 92 56 162.5t126 70.5q77 0 145 -145q-33 -78 -99.5 -124t-146.5 -46q-82 0 -81 82zM559 1329q0 92 43 146.5t113 54.5q104 0 159 -68q-88 -229 -212 -229q-45 0 -74 28.5t-29 67.5z" />
<glyph unicode="&#xa9;" horiz-adv-x="1568" d="M82 739q0 289 226.5 457t547.5 168q158 0 324 -27q53 -8 53 -55q0 -31 -49 -65.5t-92 -34.5q-45 0 -135.5 13t-139.5 13q-229 0 -377.5 -118.5t-148.5 -344.5q0 -205 136 -361.5t341 -156.5q209 0 362.5 149.5t153.5 377.5q0 59 -25.5 177t-25.5 179q0 86 57 86 q41 0 72 -35q125 -147 125 -383q0 -150 -47 -278.5t-139.5 -231t-243 -161t-342.5 -58.5q-266 0 -449.5 206t-183.5 484zM512 627q0 184 119 315t264 131q94 0 94 -84q0 -47 -19.5 -75.5t-47.5 -28.5q-16 0 -37 19.5t-39 19.5q-57 0 -96 -83t-39 -182q0 -49 37.5 -69.5 t76.5 -20.5q47 0 99.5 43t90.5 86t48 43q25 0 24 -49q0 -84 -95 -181t-255 -97q-90 0 -157.5 54t-67.5 159z" />
<glyph unicode="&#xaa;" horiz-adv-x="899" d="M164 1149q0 147 94 274t244 127q36 0 73 -6q29 -8 39 -12q16 35 41 35q37 0 77 -39t40 -70q-16 -41 -49 -96q-10 -59 -10 -160q0 -98 28 -98q16 0 47 18.5t50 18.5q20 0 20 -21q0 -41 -63.5 -100t-128.5 -59q-68 0 -88 112q-74 -119 -220 -119q-86 0 -140 53.5t-54 141.5 zM346 1180q0 -95 70 -95q47 0 88 36t63 108q0 131 25 239q-96 -16 -171 -94t-75 -194z" />
<glyph unicode="&#xab;" horiz-adv-x="1656" d="M205 457q0 12 31 49q135 180 325.5 322.5t364.5 142.5q55 0 55 -27q0 -18 -25 -35q-47 -31 -231 -192.5t-227 -216.5q455 -375 454 -391q0 -27 -72.5 -60t-129.5 -33q-27 0 -48 13q-41 27 -78.5 54.5t-64.5 48t-72 59t-69.5 60t-89 81t-99.5 90.5q-25 20 -24 35zM758 518 q-1 18 30 49q428 403 691 404q55 0 55 -27q0 -18 -25 -35q-403 -268 -462 -346q80 -59 194.5 -171.5t189 -195.5t74.5 -87q0 -29 -43 -61t-98 -32q-10 0 -47 13q-100 74 -255 216t-280 238q-25 18 -24 35z" />
<glyph unicode="&#xac;" horiz-adv-x="901" d="M82 541v118h737v-358h-127v240h-610z" />
<glyph unicode="&#xad;" horiz-adv-x="802" d="M102 541v118h598v-118h-598z" />
<glyph unicode="&#xae;" horiz-adv-x="1568" d="M82 657q0 313 228.5 510t545.5 197q209 0 426 -68q53 -18 53 -55q0 -31 -49 -65.5t-92 -34.5q-31 0 -146.5 33.5t-230.5 33.5q-219 0 -372.5 -155.5t-153.5 -388.5q0 -199 133 -328t344 -129q207 0 361.5 158.5t154.5 388.5q0 39 -36 121.5t-36 132.5q0 86 58 86 q61 0 139 -103.5t78 -212.5q0 -150 -47 -281.5t-139.5 -238t-243 -168t-342.5 -61.5q-272 0 -452.5 178t-180.5 450zM485 469q0 88 39 220t88 208q35 47 78 47q33 0 33 -57q0 -53 -27.5 -145.5t-31.5 -137.5v-133q0 -43 -37 -74.5t-84 -31.5q-57 0 -58 104zM530 948 q0 20 29 56t94.5 70t147.5 34q113 0 190.5 -49t77.5 -150q0 -154 -133 -211q4 -8 14.5 -55t27.5 -74.5t46 -27.5q27 0 78 55t65 55q35 0 35 -55q0 -63 -84 -130t-170 -67q-37 0 -61.5 16.5t-37.5 49.5t-20.5 63.5t-15.5 77.5t-14 74q-59 18 -60 72q0 25 22.5 40t57.5 15 q25 0 39 -10q37 41 37 106q0 80 -115 80q-72 0 -136 -30.5t-83 -30.5q-31 0 -31 26z" />
<glyph unicode="&#xaf;" horiz-adv-x="1024" d="M25 1372q-1 166 280 166q68 0 362 -3t308 -3q25 0 24.5 -35t-52.5 -94.5t-85 -59.5q-12 0 -259 7.5t-269 7.5q-80 0 -178.5 -2t-118.5 -2q-12 0 -12 18z" />
<glyph unicode="&#xb0;" horiz-adv-x="774" d="M102 918q0 125 80 203.5t205 78.5q133 0 209 -75.5t76 -206.5q0 -125 -80 -204t-205 -79q-131 0 -208 76t-77 207zM242 920q0 -166 145 -166q68 0 106.5 44t38.5 122q0 162 -145 161q-66 0 -105.5 -42.5t-39.5 -118.5z" />
<glyph unicode="&#xb1;" horiz-adv-x="966" d="M102 0v119h762v-119h-762zM102 487v119h318v314h127v-314h317v-119h-317v-299h-127v299h-318z" />
<glyph unicode="&#xb2;" horiz-adv-x="710" d="M123 1012q0 47 35 73.5t88 26.5q49 0 84 -10q12 12 30.5 33.5t50 90t31.5 142.5q0 51 -51 51q-43 0 -84 -35.5t-61 -35.5q-12 0 -21.5 11t-9.5 23q0 51 55.5 101.5t139.5 50.5q92 0 143 -41t51 -115q0 -156 -155 -331q33 -12 63 -13q37 0 76 38t49 38q33 0 33 -51 t-54.5 -97.5t-148.5 -46.5q-25 0 -51.5 9.5t-40.5 17.5l-15 8q-51 -45 -124 -45q-53 0 -83 29t-30 78z" />
<glyph unicode="&#xb3;" horiz-adv-x="712" d="M143 1047q0 35 37 34q20 0 64.5 -29.5t81.5 -29.5q47 0 72.5 26.5t25.5 57.5q0 47 -27 86h-22q-90 0 -90 57q0 31 26.5 44.5t55.5 13.5q14 0 26 -4q23 31 23 71q0 51 -56 51q-33 0 -74.5 -35.5t-66.5 -35.5q-12 0 -21.5 11t-9.5 21q0 51 53.5 102.5t139.5 51.5 q92 0 142 -41t50 -117q0 -66 -59 -133q76 -63 76 -153q0 -88 -78 -139.5t-170 -51.5q-80 0 -139.5 47t-59.5 95z" />
<glyph unicode="&#xb4;" horiz-adv-x="1024" d="M203 1165q0 23 30.5 39.5t51.5 18.5q41 10 77.5 32.5t61.5 46t52.5 64.5t40.5 65.5t37 73.5t34 68q23 47 137 47q96 0 96 -33q0 -16 -33 -69q-47 -82 -73.5 -123t-76.5 -102.5t-95 -91.5t-111.5 -52.5t-146.5 -22.5q-82 0 -82 39z" />
<glyph unicode="&#xb5;" horiz-adv-x="1050" d="M-78 -371q0 449 154 897l49 420q61 49 182 49q66 0 87.5 -52t21.5 -146q0 -78 -48.5 -246t-48.5 -268q0 -74 93 -74q53 0 99 49t75.5 128t48 153.5t29.5 146.5q-6 43 -7 178q0 137 213 137q49 0 64.5 -31.5t15.5 -101.5q0 -115 -44 -327.5t-44 -276.5q0 -35 23 -35 q45 0 165.5 124t135.5 124q29 0 28 -71q0 -137 -144 -274.5t-308 -137.5q-131 0 -150 180q-102 -184 -297 -184q-27 0 -75 4q-14 -94 -35 -240q-31 -215 -48.5 -265t-68.5 -50q-57 0 -127 84q-39 45 -39 106z" />
<glyph unicode="&#xb6;" horiz-adv-x="1050" d="M41 883q0 205 124 293t394 88q29 0 81 -2t83 -2h276v-119h-182v-1295h-127v1295h-160v-1295h-127v666q-186 23 -274 111t-88 260z" />
<glyph unicode="&#xb7;" horiz-adv-x="749" d="M205 602q0 92 40 135t130 43q94 0 132 -42t38 -136q0 -92 -40 -134t-130 -42q-92 0 -131 42t-39 134z" />
<glyph unicode="&#xb8;" horiz-adv-x="1024" d="M258 -371q0 25 41 44.5t84 19.5q37 0 55.5 -20.5t30.5 -55.5t27 -51q82 82 82 168q0 35 -17 63q-45 -12 -82 -12q-59 0 -59 25q0 8 2 12q29 67 33 180q2 25 41 42t82 17q66 0 65 -41q0 -47 -14 -122q66 0 101.5 -36t35.5 -98q0 -106 -96.5 -210.5t-216.5 -104.5 q-74 0 -134.5 55.5t-60.5 124.5z" />
<glyph unicode="&#xb9;" horiz-adv-x="583" d="M113 938q0 39 38.5 68.5t112.5 37.5q2 113 78 347q-76 -51 -113 -52q-29 0 -28 39q0 41 31.5 76t76.5 49q104 35 160 35q35 -39 35 -57q0 -37 -35 -195t-45 -242h82q37 0 37 -32q0 -31 -18.5 -58.5t-49.5 -27.5q-25 0 -84 2t-74 2q-47 0 -105 -9.5t-71 -9.5q-29 0 -28 27 z" />
<glyph unicode="&#xba;" horiz-adv-x="876" d="M164 1198q0 145 93 250.5t243 105.5q68 0 125 -22.5t57 -48.5q0 -20 -94 -21q-106 0 -175 -68.5t-69 -176.5q0 -57 34 -93.5t97 -36.5q47 0 84 19q-80 61 -80 176q0 61 44 109.5t120 48.5q57 0 88 -37t31 -96q0 -57 -29 -125q33 8 62.5 39.5t44.5 31.5q16 0 16 -45 q0 -70 -44 -107.5t-110 -37.5q-29 0 -40 2q-98 -109 -232 -109q-131 0 -198.5 70t-67.5 172zM623 1294q0 -61 26 -94q27 51 27 100q0 39 -27 39q-12 0 -19 -14.5t-7 -30.5z" />
<glyph unicode="&#xbb;" horiz-adv-x="1656" d="M205 43q0 18 24 35q403 268 463 346q-80 59 -194.5 172t-189.5 195.5t-75 87.5q0 29 43 60.5t99 31.5q10 0 47 -13q100 -74 254.5 -216t279.5 -238q25 -18 25 -35q0 -18 -31 -49q-428 -403 -690 -404q-55 0 -55 27zM758 43q0 18 24 35q47 31 231.5 192.5t227.5 216.5 q-455 369 -455 392q0 27 73 59.5t130 32.5q27 0 47 -13q41 -27 79 -54t64.5 -47.5t71.5 -59.5t70 -60.5t89.5 -81t98.5 -90.5q25 -20 25 -35q0 -12 -31 -49q-135 -180 -325.5 -322.5t-364.5 -142.5q-55 0 -55 27z" />
<glyph unicode="&#xbc;" horiz-adv-x="1431" d="M123 938q0 39 39 68.5t112 37.5q2 113 78 347q-76 -51 -112 -52q-29 0 -29 39q0 41 31.5 76t76.5 49q104 35 160 35q35 -39 35 -57q0 -37 -35 -195t-45 -242h82q37 0 37 -32q0 -31 -18.5 -58.5t-49.5 -27.5q-25 0 -84 2t-73 2q-47 0 -105.5 -9.5t-70.5 -9.5q-29 0 -29 27 zM209 41q0 17 6 35l809 1446q6 16 20 16q31 0 70 -58.5t39 -109.5q0 -35 -22.5 -85t-47 -90t-82 -125t-90.5 -136q-487 -770 -575 -1038q-3 -6 -12 -7q-41 0 -78 53.5t-37 98.5zM799 252q20 86 86.5 200.5t103.5 114.5q33 0 33 -47q0 -31 -11.5 -66.5t-29.5 -82.5t-27 -76 l107 8q49 187 78 238q33 57 75 57q31 0 31 -37q0 -39 -39 -260h82q41 0 41 -35q0 -27 -25.5 -56.5t-52.5 -29.5q-39 0 -61 2q-10 -98 -10 -162q0 -41 -54 -40q-59 0 -81.5 21.5t-22.5 78.5q0 41 12 102l-155 -14q-63 39 -80 84z" />
<glyph unicode="&#xbd;" horiz-adv-x="1427" d="M123 938q0 39 39 68.5t112 37.5q2 113 78 347q-76 -51 -112 -52q-29 0 -29 39q0 41 31.5 76t76.5 49q104 35 160 35q35 -39 35 -57q0 -37 -35 -195t-45 -242h82q37 0 37 -32q0 -31 -18.5 -58.5t-49.5 -27.5q-25 0 -84 2t-73 2q-47 0 -105.5 -9.5t-70.5 -9.5q-29 0 -29 27 zM209 41q0 17 6 35l809 1446q6 16 20 16q31 0 70 -58.5t39 -109.5q0 -35 -22.5 -85t-47 -90t-82 -125t-90.5 -136q-487 -770 -575 -1038q-3 -6 -12 -7q-41 0 -78 53.5t-37 98.5zM778 80q0 47 35 73.5t88 26.5q49 0 84 -10q12 12 30.5 33.5t50.5 90t32 142.5q0 51 -51 51 q-43 0 -84 -35.5t-62 -35.5q-12 0 -21.5 11t-9.5 24q0 51 55.5 101t139.5 50q92 0 143.5 -41t51.5 -115q0 -156 -156 -331q33 -12 63 -13q37 0 76 38t49 38q33 0 33 -51t-54 -97t-149 -46q-25 0 -51.5 8t-40.5 17l-14 9q-51 -45 -125 -45q-53 0 -83 29t-30 78z" />
<glyph unicode="&#xbe;" horiz-adv-x="1431" d="M102 1047q0 35 37 34q20 0 64.5 -29.5t81.5 -29.5q47 0 72.5 26.5t25.5 57.5q0 47 -27 86h-22q-90 0 -90 57q0 31 26.5 44.5t55.5 13.5q14 0 26 -4q23 31 23 71q0 51 -56 51q-33 0 -74.5 -35.5t-66.5 -35.5q-12 0 -21.5 11t-9.5 21q0 51 53.5 102.5t139.5 51.5 q92 0 142 -41t50 -117q0 -66 -59 -133q76 -63 76 -153q0 -88 -78 -139.5t-170 -51.5q-80 0 -139.5 47t-59.5 95zM209 41q0 17 6 35l809 1446q6 16 20 16q31 0 70 -58.5t39 -109.5q0 -35 -22.5 -85t-47 -90t-82 -125t-90.5 -136q-487 -770 -575 -1038q-3 -6 -12 -7 q-41 0 -78 53.5t-37 98.5zM799 252q20 86 86.5 200.5t103.5 114.5q33 0 33 -47q0 -31 -11.5 -66.5t-29.5 -82.5t-27 -76l107 8q49 187 78 238q33 57 75 57q31 0 31 -37q0 -39 -39 -260h82q41 0 41 -35q0 -27 -25.5 -56.5t-52.5 -29.5q-39 0 -61 2q-10 -98 -10 -162 q0 -41 -54 -40q-59 0 -81.5 21.5t-22.5 78.5q0 41 12 102l-155 -14q-63 39 -80 84z" />
<glyph unicode="&#xbf;" horiz-adv-x="1171" d="M102 -135q0 125 29 216t76 141t103.5 86t112.5 59.5t103 50t76 69.5t29 107q0 12 22 12q37 0 81 -27.5t44 -68.5q0 -100 -26.5 -169t-65.5 -99.5t-85 -61t-85 -57.5t-65.5 -86.5t-26.5 -147.5q0 -92 53 -144t141 -52q94 0 160 30.5t93.5 66.5t61.5 66.5t68 30.5 q27 1 27 -32q0 -123 -128 -241t-333 -118q-221 0 -343 95.5t-122 273.5zM623 772q0 90 54 159.5t124 69.5q49 0 92 -49t43 -108q0 -82 -69.5 -117t-164.5 -35q-80 0 -79 80z" />
<glyph unicode="&#xc0;" horiz-adv-x="1423" d="M-41 616q0 61 104.5 127t272.5 95q121 307 298 509.5t396 202.5q199 0 290 -108.5t91 -282.5q0 -109 -34 -240t-75.5 -230t-75.5 -199.5t-34 -153.5q0 -55 9 -81t38 -26q37 0 106.5 63.5t130 127t74.5 63.5q37 0 37 -77q0 -135 -155.5 -273.5t-315.5 -138.5 q-213 0 -213 217q0 141 92 426q-375 12 -411 12h-29q-37 -221 -37 -477q0 -111 -84 -152q-106 -51 -151 -51q-102 0 -103 199q0 176 84 459q-254 -31 -278 -31q-27 0 -27 20zM399 1997q0 31 61.5 53.5t117.5 22.5q51 0 75 -31q133 -180 418 -262q41 -12 41 -29 q0 -20 -59.5 -35.5t-112.5 -15.5q-63 0 -150.5 19.5t-177.5 53t-151.5 94t-61.5 130.5zM600 854l465 -6q51 172 51 239q0 86 -32 135.5t-93 49.5q-270 0 -391 -418z" />
<glyph unicode="&#xc1;" horiz-adv-x="1423" d="M-41 616q0 61 104.5 127t272.5 95q121 307 298 509.5t396 202.5q199 0 290 -108.5t91 -282.5q0 -109 -34 -240t-75.5 -230t-75.5 -199.5t-34 -153.5q0 -55 9 -81t38 -26q37 0 106.5 63.5t130 127t74.5 63.5q37 0 37 -77q0 -135 -155.5 -273.5t-315.5 -138.5 q-213 0 -213 217q0 141 92 426q-375 12 -411 12h-29q-37 -221 -37 -477q0 -111 -84 -152q-106 -51 -151 -51q-102 0 -103 199q0 176 84 459q-254 -31 -278 -31q-27 0 -27 20zM600 854l465 -6q51 172 51 239q0 86 -32 135.5t-93 49.5q-270 0 -391 -418zM987 1729q0 10 6 18 t18.5 15t20.5 10.5t23 8.5l14 5q131 43 206 94t138 145q31 47 137 48q98 0 99 -33q0 -27 -33 -70q-119 -156 -234.5 -218t-312.5 -62q-82 0 -82 39z" />
<glyph unicode="&#xc2;" horiz-adv-x="1423" d="M-41 616q0 61 104.5 127t272.5 95q121 307 298 509.5t396 202.5q199 0 290 -108.5t91 -282.5q0 -109 -34 -240t-75.5 -230t-75.5 -199.5t-34 -153.5q0 -55 9 -81t38 -26q37 0 106.5 63.5t130 127t74.5 63.5q37 0 37 -77q0 -135 -155.5 -273.5t-315.5 -138.5 q-213 0 -213 217q0 141 92 426q-375 12 -411 12h-29q-37 -221 -37 -477q0 -111 -84 -152q-106 -51 -151 -51q-102 0 -103 199q0 176 84 459q-254 -31 -278 -31q-27 0 -27 20zM600 854l465 -6q51 172 51 239q0 86 -32 135.5t-93 49.5q-270 0 -391 -418zM633 1761q0 25 26 47 q6 6 283 220q86 66 176 65q35 0 58 -14q145 -84 213.5 -136.5t160.5 -154.5q12 -12 13 -25q0 -37 -65.5 -69.5t-131.5 -32.5q-45 0 -68 22q-147 143 -262 220q-107 -87 -162 -134q-59 -53 -155 -53q-86 0 -86 45z" />
<glyph unicode="&#xc3;" horiz-adv-x="1423" d="M-41 616q0 61 104.5 127t272.5 95q121 307 298 509.5t396 202.5q199 0 290 -108.5t91 -282.5q0 -109 -34 -240t-75.5 -230t-75.5 -199.5t-34 -153.5q0 -55 9 -81t38 -26q37 0 106.5 63.5t130 127t74.5 63.5q37 0 37 -77q0 -135 -155.5 -273.5t-315.5 -138.5 q-213 0 -213 217q0 141 92 426q-375 12 -411 12h-29q-37 -221 -37 -477q0 -111 -84 -152q-106 -51 -151 -51q-102 0 -103 199q0 176 84 459q-254 -31 -278 -31q-27 0 -27 20zM578 1843q-2 31 36 78q80 98 173.5 145.5t173.5 47.5q55 0 112 -35t96 -77t88.5 -77t90.5 -35 q18 0 40.5 20.5t59.5 41t86 20.5q68 0 68 -37q0 -12 -7 -16q-96 -201 -309 -201q-72 0 -140.5 52.5t-132 103.5t-124.5 51q-37 1 -76 -67q-18 -29 -79.5 -44.5t-115.5 -15.5q-41 0 -40 45zM600 854l465 -6q51 172 51 239q0 86 -32 135.5t-93 49.5q-270 0 -391 -418z" />
<glyph unicode="&#xc4;" horiz-adv-x="1423" d="M-41 616q0 61 104.5 127t272.5 95q121 307 298 509.5t396 202.5q199 0 290 -108.5t91 -282.5q0 -109 -34 -240t-75.5 -230t-75.5 -199.5t-34 -153.5q0 -55 9 -81t38 -26q37 0 106.5 63.5t130 127t74.5 63.5q37 0 37 -77q0 -135 -155.5 -273.5t-315.5 -138.5 q-213 0 -213 217q0 141 92 426q-375 12 -411 12h-29q-37 -221 -37 -477q0 -111 -84 -152q-106 -51 -151 -51q-102 0 -103 199q0 176 84 459q-254 -31 -278 -31q-27 0 -27 20zM600 854l465 -6q51 172 51 239q0 86 -32 135.5t-93 49.5q-270 0 -391 -418zM690 1817 q0 92 56.5 162.5t125.5 70.5q78 0 146 -145q-33 -78 -99.5 -124t-146.5 -46q-82 0 -82 82zM1100 1831q0 92 43 146.5t112 54.5q105 0 160 -68q-88 -229 -213 -229q-45 0 -73.5 28.5t-28.5 67.5z" />
<glyph unicode="&#xc5;" horiz-adv-x="1423" d="M-41 616q0 61 104.5 127t272.5 95q211 539 512 671q-92 78 -92 199q0 102 75.5 164.5t184.5 62.5h22q18 6 37 7q98 0 204.5 -86.5t106.5 -178.5q0 -109 -133 -180q158 -98 158 -338q0 -109 -34 -240t-75.5 -230t-75.5 -199.5t-34 -153.5q0 -55 9 -81t38 -26 q37 0 106.5 63.5t130 127t74.5 63.5q37 0 37 -77q0 -135 -155.5 -273.5t-315.5 -138.5q-213 0 -213 217q0 141 92 426q-375 12 -411 12h-29q-37 -221 -37 -477q0 -111 -84 -152q-106 -51 -151 -51q-102 0 -103 199q0 176 84 459q-254 -31 -278 -31q-27 0 -27 20zM600 854 l465 -6q51 172 51 239q0 86 -32 135.5t-93 49.5q-270 0 -391 -418zM956 1739q0 -63 39 -110.5t105 -47.5q86 0 86 74q0 39 -38 76.5t-87 58.5q-8 -2 -25 -2q-39 0 -65 8q-14 -23 -15 -57z" />
<glyph unicode="&#xc6;" horiz-adv-x="2068" d="M-41 616q0 61 104.5 127t272.5 95q121 307 298 509.5t396 202.5q74 0 135 -16q143 -2 495.5 -6t393.5 -4q55 0 55 -43q0 -8 -7 -25.5t-18 -43.5t-18 -38q-31 -80 -116 -80q-133 0 -555 4q16 -70 16 -139q0 -135 -53 -309q106 -2 259 0q147 2 186.5 -4t39.5 -37 q0 -6 -7 -23.5t-18.5 -40t-15.5 -34.5q-16 -41 -41.5 -58.5t-70.5 -17.5q-10 0 -63.5 1t-159 2t-185.5 1l-20 -55q-55 -199 -66 -383q250 12 410 12q106 0 182 20.5t106.5 45t62.5 45t62 20.5q37 0 37 -78q0 -289 -573 -289q-25 0 -163 8.5t-194 10.5q-59 -27 -170 -27 q-25 0 -39 12.5t-21 42t-8 58.5t-1 86q0 166 106 457l6 18q-307 6 -415 6h-29q-37 -221 -37 -477q0 -111 -84 -152q-106 -51 -151 -51q-102 0 -103 199q0 176 84 459q-254 -31 -278 -31q-27 0 -27 20zM600 854q47 0 205 -1t260 -1q51 168 51 235q0 86 -32 135.5t-93 49.5 q-270 0 -391 -418z" />
<glyph unicode="&#xc7;" horiz-adv-x="1124" d="M123 510q0 197 67.5 395.5t190.5 349.5q-102 123 -102 218q0 18 12 31.5t28 13.5q23 0 51.5 -25t64.5 -61.5t65 -55.5q203 172 452 172q313 0 314 -252q0 -111 -97.5 -183.5t-257.5 -72.5q-156 0 -321 66q-70 -113 -108 -254t-38 -264q0 -375 299 -375q119 0 241 55.5 t200 155.5q45 59 73 59q31 0 31 -77q0 -170 -143.5 -283t-345.5 -133q-4 -47 -13 -92q66 0 102 -36t36 -98q0 -106 -96.5 -210.5t-217.5 -104.5q-74 0 -134 55.5t-60 124.5q0 25 41 44.5t84 19.5q37 0 55 -20.5t30.5 -55.5t26.5 -51q82 82 82 168q0 35 -16 63 q-45 -12 -82 -12q-59 0 -59 25q0 8 2 12q27 66 30 168q-231 23 -359 159t-128 361zM688 1233q106 -35 240 -35q111 0 110 68q0 80 -100 80q-137 0 -250 -113z" />
<glyph unicode="&#xc8;" horiz-adv-x="1083" d="M82 414q0 295 293 409q-150 104 -150 316q0 100 56 186q-115 129 -115 229q0 18 12 31.5t29 13.5q29 0 96.5 -69.5t97.5 -87.5q176 106 416 106q145 0 240.5 -58t95.5 -194q0 -111 -97.5 -183.5t-256.5 -72.5q-139 0 -275 99q-2 -10 -2 -33q0 -123 82 -199q31 6 68 6 q170 0 178 -86v-4q0 -104 -205 -104q-45 0 -98 16q-123 -84 -123 -268q0 -238 332 -238q88 0 174 40t136 87t91 87t53 40q37 0 37 -77q0 -166 -182 -289t-432 -123q-252 0 -401.5 102.5t-149.5 317.5zM158 1997q0 31 61.5 53.5t116.5 22.5q51 0 76 -31q133 -180 417 -262 q41 -12 41 -29q0 -20 -59.5 -35.5t-112.5 -15.5q-63 0 -150 19.5t-177 53t-151.5 94t-61.5 130.5zM584 1266q111 -68 231 -68q111 0 111 68q0 80 -123 80q-139 0 -219 -80z" />
<glyph unicode="&#xc9;" horiz-adv-x="1083" d="M82 414q0 295 293 409q-150 104 -150 316q0 100 56 186q-115 129 -115 229q0 18 12 31.5t29 13.5q29 0 96.5 -69.5t97.5 -87.5q176 106 416 106q145 0 240.5 -58t95.5 -194q0 -111 -97.5 -183.5t-256.5 -72.5q-139 0 -275 99q-2 -10 -2 -33q0 -123 82 -199q31 6 68 6 q178 0 178 -90q0 -104 -205 -104q-45 0 -98 16q-123 -84 -123 -268q0 -238 332 -238q88 0 174 40t136 87t91 87t53 40q37 0 37 -77q0 -166 -182 -289t-432 -123q-252 0 -401.5 102.5t-149.5 317.5zM584 1266q111 -68 231 -68q111 0 111 68q0 80 -123 80q-139 0 -219 -80z M745 1729q0 10 6.5 18t18.5 15t20.5 10.5t22.5 8.5l14 5q131 43 206 94t138 145q31 47 138 48q98 0 98 -33q0 -27 -33 -70q-119 -156 -234.5 -218t-312.5 -62q-82 0 -82 39z" />
<glyph unicode="&#xca;" horiz-adv-x="1083" d="M82 414q0 295 293 409q-150 104 -150 316q0 100 56 186q-115 129 -115 229q0 18 12 31.5t29 13.5q29 0 96.5 -69.5t97.5 -87.5q176 106 416 106q145 0 240.5 -58t95.5 -194q0 -111 -97.5 -183.5t-256.5 -72.5q-139 0 -275 99q-2 -10 -2 -33q0 -123 82 -199q31 6 68 6 q178 0 178 -90q0 -104 -205 -104q-45 0 -98 16q-123 -84 -123 -268q0 -238 332 -238q88 0 174 40t136 87t91 87t53 40q37 0 37 -77q0 -166 -182 -289t-432 -123q-252 0 -401.5 102.5t-149.5 317.5zM391 1761q0 25 27 47q6 6 282 220q86 66 177 65q35 0 57 -14 q145 -84 214 -136.5t161 -154.5q12 -12 12 -25q0 -37 -65.5 -69.5t-131.5 -32.5q-45 0 -67 22q-147 143 -262 220q-107 -87 -162 -134q-59 -53 -156 -53q-86 0 -86 45zM584 1266q111 -68 231 -68q111 0 111 68q0 80 -123 80q-139 0 -219 -80z" />
<glyph unicode="&#xcb;" horiz-adv-x="1083" d="M82 414q0 295 293 409q-150 104 -150 316q0 100 56 186q-115 129 -115 229q0 18 12 31.5t29 13.5q29 0 96.5 -69.5t97.5 -87.5q176 106 416 106q145 0 240.5 -58t95.5 -194q0 -111 -97.5 -183.5t-256.5 -72.5q-139 0 -275 99q-2 -10 -2 -33q0 -123 82 -199q31 6 68 6 q178 0 178 -90q0 -104 -205 -104q-45 0 -98 16q-123 -84 -123 -268q0 -238 332 -238q88 0 174 40t136 87t91 87t53 40q37 0 37 -77q0 -166 -182 -289t-432 -123q-252 0 -401.5 102.5t-149.5 317.5zM449 1817q0 92 56 162.5t126 70.5q77 0 145 -145q-33 -78 -99.5 -124 t-146.5 -46q-82 0 -81 82zM584 1266q111 -68 231 -68q111 0 111 68q0 80 -123 80q-139 0 -219 -80zM858 1831q0 92 43 146.5t113 54.5q105 0 160 -68q-88 -229 -213 -229q-45 0 -74 28.5t-29 67.5z" />
<glyph unicode="&#xcc;" horiz-adv-x="671" d="M-35 1997q0 31 61.5 53.5t116.5 22.5q51 0 76 -31q133 -180 418 -262q41 -12 41 -29q0 -20 -59.5 -35.5t-112.5 -15.5q-63 0 -150.5 19.5t-177.5 53t-151.5 94t-61.5 130.5zM133 209q0 186 101.5 595t187.5 597q66 143 172 143q27 0 47.5 -33.5t20.5 -76.5 q0 -74 -56.5 -325t-112 -555t-55.5 -507q0 -57 -82 -57q-127 0 -175 49t-48 170z" />
<glyph unicode="&#xcd;" horiz-adv-x="671" d="M133 209q0 186 101.5 595t187.5 597q66 143 172 143q27 0 47.5 -33.5t20.5 -76.5q0 -74 -56.5 -325t-112 -555t-55.5 -507q0 -57 -82 -57q-127 0 -175 49t-48 170zM553 1729q0 10 6 18t18.5 15t20.5 10.5t23 8.5l14 5q131 43 205.5 94t138.5 145q31 47 137 48 q98 0 98 -33q1 -27 -32 -70q-119 -156 -235 -218t-312 -62q-82 0 -82 39z" />
<glyph unicode="&#xce;" horiz-adv-x="671" d="M133 209q0 186 101.5 595t187.5 597q66 143 172 143q27 0 47.5 -33.5t20.5 -76.5q0 -74 -56.5 -325t-112 -555t-55.5 -507q0 -57 -82 -57q-127 0 -175 49t-48 170zM199 1761q0 25 26 47q6 6 283 220q86 66 176 65q35 0 57 -14q145 -84 214 -136.5t161 -154.5 q12 -12 12 -25q0 -37 -65.5 -69.5t-130.5 -32.5q-45 0 -68 22q-147 143 -262 220q-107 -87 -162 -134q-59 -53 -155 -53q-86 0 -86 45z" />
<glyph unicode="&#xcf;" horiz-adv-x="671" d="M133 209q0 186 101.5 595t187.5 597q66 143 172 143q27 0 47.5 -33.5t20.5 -76.5q0 -74 -56.5 -325t-112 -555t-55.5 -507q0 -57 -82 -57q-127 0 -175 49t-48 170zM256 1817q0 92 56.5 162.5t125.5 70.5q78 0 146 -145q-33 -78 -99.5 -124t-146.5 -46q-82 0 -82 82z M666 1831q0 92 43 146.5t112 54.5q105 0 160 -68q-88 -229 -213 -229q-45 0 -73.5 28.5t-28.5 67.5z" />
<glyph unicode="&#xd0;" horiz-adv-x="1525" d="M-20 354q0 25 32.5 25t202.5 -45q18 154 66 315q-61 0 -149.5 -1t-96.5 -1q-12 0 -12 19q0 166 280 165h37q57 154 94 232q66 143 152 143q16 0 31.5 -34.5t15.5 -75.5q0 -68 -45 -267q299 -4 327 -4q25 0 25 -34.5t-52 -94t-85 -59.5q-4 0 -256 12q-47 -217 -64 -383 q139 -31 236 -30q205 0 335 187t130 435q0 483 -375 483q-121 0 -328 -70.5t-250 -70.5q-57 0 -57 29q0 51 94 124.5t248 131t293 57.5q135 0 252 -37t217 -115.5t158.5 -220t58.5 -333.5q0 -162 -50 -311.5t-146.5 -272.5t-256 -195.5t-362.5 -72.5q-88 0 -213 36 q-14 -39 -78 -38q-102 0 -140 34.5t-42 118.5q-102 57 -164.5 116.5t-62.5 102.5z" />
<glyph unicode="&#xd1;" horiz-adv-x="1415" d="M0 1280q0 111 102.5 183.5t245.5 72.5q139 0 185.5 -83t46.5 -239v-14q176 340 442 340q199 0 290 -108.5t91 -282.5q0 -137 -54.5 -305t-109.5 -306.5t-55 -201.5q0 -106 47 -107q35 0 110.5 63.5t126.5 131.5q47 59 74 59q37 0 37 -77q0 -135 -155.5 -273.5 t-315.5 -138.5q-213 0 -213 217q0 137 106.5 458.5t106.5 407.5t-32 135.5t-93 49.5q-96 0 -187 -92.5t-156 -230.5t-108 -271t-61 -242q39 -195 39 -254q0 -111 -84 -152q-106 -51 -152 -51q-102 0 -102 199q0 168 73.5 572.5t73.5 418.5q0 166 -83 166q-37 0 -99.5 -51 t-103.5 -51q-33 0 -33 57zM563 1843q-2 31 37 78q80 98 174 145.5t172 47.5q55 0 112.5 -35t96.5 -77t88 -77t90 -35q18 0 41 20.5t59.5 41t86.5 20.5q68 0 67 -37q0 -12 -6 -16q-96 -201 -309 -201q-72 0 -140.5 52.5t-132 103.5t-125.5 51q-36 1 -75 -67 q-18 -29 -80 -44.5t-115 -15.5q-41 0 -41 45z" />
<glyph unicode="&#xd2;" horiz-adv-x="1738" d="M143 612q0 242 99.5 453t292 344t440.5 133q195 0 323.5 -67.5t128.5 -143.5q0 -23 -61 -22q-10 0 -143 18.5t-265 18.5q-147 0 -263.5 -102.5t-173 -250t-56.5 -303.5q0 -203 94 -318.5t262 -115.5q207 0 343 97.5t202 262.5q-147 18 -228 111.5t-81 247.5 q0 117 76.5 197.5t195.5 80.5q135 0 204 -96t69 -246q0 -35 -5 -96q18 8 41 22.5t42.5 22.5t39.5 8q29 0 29 -34q0 -72 -47 -124.5t-129 -78.5q-63 -301 -263 -474t-509 -173q-168 0 -297 52t-206 142t-116 199.5t-39 234.5zM395 1997q0 31 61.5 53.5t116.5 22.5 q51 0 76 -31q133 -180 418 -262q41 -12 41 -29q0 -20 -59.5 -35.5t-112.5 -15.5q-63 0 -150.5 19.5t-177.5 53t-151.5 94t-61.5 130.5zM1319 993q0 -113 98 -168q6 55 6 115q0 133 -61 133q-43 0 -43 -80z" />
<glyph unicode="&#xd3;" horiz-adv-x="1738" d="M143 612q0 242 99.5 453t292 344t440.5 133q195 0 323.5 -67.5t128.5 -143.5q0 -23 -61 -22q-10 0 -143 18.5t-265 18.5q-147 0 -263.5 -102.5t-173 -250t-56.5 -303.5q0 -203 94 -318.5t262 -115.5q207 0 343 97.5t202 262.5q-147 18 -228 111.5t-81 247.5 q0 117 76.5 197.5t195.5 80.5q135 0 204 -96t69 -246q0 -35 -5 -96q18 8 41 22.5t42.5 22.5t39.5 8q29 0 29 -34q0 -72 -47 -124.5t-129 -78.5q-63 -301 -263 -474t-509 -173q-168 0 -297 52t-206 142t-116 199.5t-39 234.5zM983 1729q0 10 6 18t18.5 15t20.5 10.5t23 8.5 l14 5q131 43 206 94t138 145q31 47 137 48q98 0 99 -33q0 -27 -33 -70q-119 -156 -234.5 -218t-312.5 -62q-82 0 -82 39zM1319 993q0 -113 98 -168q6 55 6 115q0 133 -61 133q-43 0 -43 -80z" />
<glyph unicode="&#xd4;" horiz-adv-x="1738" d="M143 612q0 242 99.5 453t292 344t440.5 133q195 0 323.5 -67.5t128.5 -143.5q0 -23 -61 -22q-10 0 -143 18.5t-265 18.5q-147 0 -263.5 -102.5t-173 -250t-56.5 -303.5q0 -203 94 -318.5t262 -115.5q207 0 343 97.5t202 262.5q-147 18 -228 111.5t-81 247.5 q0 117 76.5 197.5t195.5 80.5q135 0 204 -96t69 -246q0 -35 -5 -96q18 8 41 22.5t42.5 22.5t39.5 8q29 0 29 -34q0 -72 -47 -124.5t-129 -78.5q-63 -301 -263 -474t-509 -173q-168 0 -297 52t-206 142t-116 199.5t-39 234.5zM629 1761q0 25 26 47q6 6 283 220q86 66 176 65 q35 0 57 -14q145 -84 214 -136.5t161 -154.5q12 -12 13 -25q0 -37 -66 -69.5t-131 -32.5q-45 0 -68 22q-147 143 -262 220q-107 -87 -162 -134q-59 -53 -155 -53q-86 0 -86 45zM1319 993q0 -113 98 -168q6 55 6 115q0 133 -61 133q-43 0 -43 -80z" />
<glyph unicode="&#xd5;" horiz-adv-x="1738" d="M143 612q0 242 99.5 453t292 344t440.5 133q195 0 323.5 -67.5t128.5 -143.5q0 -23 -61 -22q-10 0 -143 18.5t-265 18.5q-147 0 -263.5 -102.5t-173 -250t-56.5 -303.5q0 -203 94 -318.5t262 -115.5q207 0 343 97.5t202 262.5q-147 18 -228 111.5t-81 247.5 q0 117 76.5 197.5t195.5 80.5q135 0 204 -96t69 -246q0 -35 -5 -96q18 8 41 22.5t42.5 22.5t39.5 8q29 0 29 -34q0 -72 -47 -124.5t-129 -78.5q-63 -301 -263 -474t-509 -173q-168 0 -297 52t-206 142t-116 199.5t-39 234.5zM573 1843q-2 31 37 78q80 98 173.5 145.5 t172.5 47.5q55 0 112.5 -35t96.5 -77t88.5 -77t89.5 -35q18 0 41 20.5t60 41t86 20.5q68 0 67 -37q0 -12 -6 -16q-96 -201 -309 -201q-72 0 -140.5 52.5t-132 103.5t-124.5 51q-37 1 -76 -67q-18 -29 -79.5 -44.5t-115.5 -15.5q-41 0 -41 45zM1319 993q0 -113 98 -168 q6 55 6 115q0 133 -61 133q-43 0 -43 -80z" />
<glyph unicode="&#xd6;" horiz-adv-x="1738" d="M143 612q0 242 99.5 453t292 344t440.5 133q195 0 323.5 -67.5t128.5 -143.5q0 -23 -61 -22q-10 0 -143 18.5t-265 18.5q-147 0 -263.5 -102.5t-173 -250t-56.5 -303.5q0 -203 94 -318.5t262 -115.5q207 0 343 97.5t202 262.5q-147 18 -228 111.5t-81 247.5 q0 117 76.5 197.5t195.5 80.5q135 0 204 -96t69 -246q0 -35 -5 -96q18 8 41 22.5t42.5 22.5t39.5 8q29 0 29 -34q0 -72 -47 -124.5t-129 -78.5q-63 -301 -263 -474t-509 -173q-168 0 -297 52t-206 142t-116 199.5t-39 234.5zM686 1817q0 92 56.5 162.5t125.5 70.5 q78 0 146 -145q-33 -78 -99.5 -124t-146.5 -46q-82 0 -82 82zM1096 1831q0 92 43 146.5t112 54.5q105 0 160 -68q-88 -229 -213 -229q-45 0 -73.5 28.5t-28.5 67.5zM1319 993q0 -113 98 -168q6 55 6 115q0 133 -61 133q-43 0 -43 -80z" />
<glyph unicode="&#xd7;" horiz-adv-x="1028" d="M123 238l305 305l-291 293l88 88l291 -293l291 293l84 -84l-291 -291l305 -305l-88 -88l-305 305l-305 -307z" />
<glyph unicode="&#xd8;" horiz-adv-x="1734" d="M41 18q-1 49 22 76q74 70 168 166q-92 152 -92 352q0 242 99.5 453t292 344t440.5 133q172 0 338 -80l121 133q6 10 16 11q27 0 39 -37t12 -78q0 -29 -1 -40t-11 -32.5t-35 -52.5q78 -74 78 -149q0 -37 -49 -37q-14 0 -129 67l-60 -65q-35 -39 -753 -787 q94 -139 280 -139q219 0 359.5 109.5t201.5 293.5q-106 80 -106 232q0 70 48 125t112 55q166 0 165 -201q0 -37 -2 -55q16 8 40 22.5t42.5 22.5t38.5 8q29 0 29 -34q0 -86 -46 -144.5t-126 -73.5q-61 -295 -262 -463.5t-514 -168.5q-293 0 -467 157q-178 -240 -230 -239 q-59 0 -59 116zM461 690q0 -90 18 -164l35 41q33 39 670 754q-6 0 -8 2q-102 23 -222 23q-147 0 -264 -102.5t-173 -250t-56 -303.5z" />
<glyph unicode="&#xd9;" horiz-adv-x="1415" d="M0 1280q0 111 102.5 183.5t245.5 72.5q94 0 156.5 -56.5t82 -123t19.5 -135.5q0 -121 -70.5 -397.5t-70.5 -432.5q0 -57 33.5 -97t109.5 -40q100 0 182 88t127.5 206t69.5 255l12 92q0 41 -4 224.5t-4 203.5q0 94 83 154.5t171 60.5q35 0 46.5 -50t11.5 -157 q0 -45 -52.5 -401.5t-52.5 -513.5q0 -186 51 -187q45 0 166 124t135 124q29 0 29 -71q0 -137 -144.5 -274.5t-308.5 -137.5q-100 0 -132.5 78t-35.5 239q-137 -317 -407 -317q-188 0 -292.5 94t-104.5 285q0 45 82.5 367.5t82.5 418.5q0 166 -83 166q-37 0 -99.5 -51 t-103.5 -51q-33 0 -33 57zM178 1997q0 31 61.5 53.5t116.5 22.5q51 0 76 -31q133 -180 418 -262q41 -12 41 -29q0 -20 -59.5 -35.5t-112.5 -15.5q-63 0 -150.5 19.5t-177.5 53t-151.5 94t-61.5 130.5z" />
<glyph unicode="&#xda;" horiz-adv-x="1415" d="M0 1280q0 111 102.5 183.5t245.5 72.5q94 0 156.5 -56.5t82 -123t19.5 -135.5q0 -121 -70.5 -397.5t-70.5 -432.5q0 -57 33.5 -97t109.5 -40q100 0 182 88t127.5 206t69.5 255l12 92q0 41 -4 224.5t-4 203.5q0 94 83 154.5t171 60.5q35 0 46.5 -50t11.5 -157 q0 -45 -52.5 -401.5t-52.5 -513.5q0 -186 51 -187q45 0 166 124t135 124q29 0 29 -71q0 -137 -144.5 -274.5t-308.5 -137.5q-100 0 -132.5 78t-35.5 239q-137 -317 -407 -317q-188 0 -292.5 94t-104.5 285q0 45 82.5 367.5t82.5 418.5q0 166 -83 166q-37 0 -99.5 -51 t-103.5 -51q-33 0 -33 57zM766 1729q0 10 6 18t18.5 15t20.5 10.5t23 8.5l14 5q131 43 205.5 94t138.5 145q31 47 137 48q98 0 98 -33q1 -27 -32 -70q-119 -156 -235 -218t-312 -62q-82 0 -82 39z" />
<glyph unicode="&#xdb;" horiz-adv-x="1415" d="M0 1280q0 111 102.5 183.5t245.5 72.5q94 0 156.5 -56.5t82 -123t19.5 -135.5q0 -121 -70.5 -397.5t-70.5 -432.5q0 -57 33.5 -97t109.5 -40q100 0 182 88t127.5 206t69.5 255l12 92q0 41 -4 224.5t-4 203.5q0 94 83 154.5t171 60.5q35 0 46.5 -50t11.5 -157 q0 -45 -52.5 -401.5t-52.5 -513.5q0 -186 51 -187q45 0 166 124t135 124q29 0 29 -71q0 -137 -144.5 -274.5t-308.5 -137.5q-100 0 -132.5 78t-35.5 239q-137 -317 -407 -317q-188 0 -292.5 94t-104.5 285q0 45 82.5 367.5t82.5 418.5q0 166 -83 166q-37 0 -99.5 -51 t-103.5 -51q-33 0 -33 57zM412 1761q0 25 26 47q6 6 283 220q86 66 176 65q35 0 57 -14q145 -84 214 -136.5t161 -154.5q12 -12 12 -25q0 -37 -65.5 -69.5t-130.5 -32.5q-45 0 -68 22q-147 143 -262 220q-107 -87 -162 -134q-59 -53 -155 -53q-86 0 -86 45z" />
<glyph unicode="&#xdc;" horiz-adv-x="1415" d="M0 1280q0 111 102.5 183.5t245.5 72.5q94 0 156.5 -56.5t82 -123t19.5 -135.5q0 -121 -70.5 -397.5t-70.5 -432.5q0 -57 33.5 -97t109.5 -40q100 0 182 88t127.5 206t69.5 255l12 92q0 41 -4 224.5t-4 203.5q0 94 83 154.5t171 60.5q35 0 46.5 -50t11.5 -157 q0 -45 -52.5 -401.5t-52.5 -513.5q0 -186 51 -187q45 0 166 124t135 124q29 0 29 -71q0 -137 -144.5 -274.5t-308.5 -137.5q-100 0 -132.5 78t-35.5 239q-137 -317 -407 -317q-188 0 -292.5 94t-104.5 285q0 45 82.5 367.5t82.5 418.5q0 166 -83 166q-37 0 -99.5 -51 t-103.5 -51q-33 0 -33 57zM469 1817q0 92 56.5 162.5t125.5 70.5q78 0 146 -145q-33 -78 -99.5 -124t-146.5 -46q-82 0 -82 82zM879 1831q0 92 43 146.5t112 54.5q105 0 160 -68q-88 -229 -213 -229q-45 0 -73.5 28.5t-28.5 67.5z" />
<glyph unicode="&#xdd;" horiz-adv-x="1325" d="M0 1280q0 111 102.5 183.5t245.5 72.5q94 0 156.5 -51t82 -110.5t19.5 -123.5q0 -109 -70.5 -358.5t-70.5 -390.5q0 -123 108 -123q121 0 211 143q29 127 96.5 388t84.5 339q51 244 139 244q98 0 146 -45t48 -154q0 -102 -73 -241q-76 -451 -148 -801q236 94 299 166 q51 59 84 59q29 0 29 -78q0 -162 -453 -354q-16 -70 -36.5 -135.5t-66.5 -155.5t-104.5 -155.5t-151.5 -112.5t-204 -47q-172 0 -289.5 75.5t-117.5 225.5q0 35 23.5 69.5t76.5 69.5t101 61.5t138.5 61.5t144.5 55.5t159 57.5l14 4q0 59 10 127q-131 -72 -280 -72 q-145 0 -222 90t-77 252q0 100 82.5 337t82.5 335q0 137 -83 137q-37 0 -99.5 -51t-103.5 -51q-33 0 -33 57zM274 -285q0 -49 61.5 -83.5t135.5 -34.5q123 0 207 313q-51 -18 -111.5 -39t-94.5 -32t-73 -25.5t-57 -23.5t-36.5 -21.5t-25 -24.5t-6.5 -29zM754 1729q0 10 6 18 t18.5 15t20.5 10.5t22 8.5l15 5q131 43 205.5 94t138.5 145q31 47 137 48q98 0 98 -33q0 -27 -33 -70q-119 -156 -234.5 -218t-311.5 -62q-82 0 -82 39z" />
<glyph unicode="&#xde;" horiz-adv-x="1175" d="M51 553q0 23 35 22q41 0 96 -24q43 207 105 426q-100 -18 -137 -19q-41 0 -41 35q0 33 67.5 82t167.5 94q45 138 82 222q66 143 172 143q16 0 42 -37t26 -74q0 -51 -25 -180h4q199 0 334 -116.5t135 -370.5q0 -231 -140 -399.5t-407 -168.5q-51 0 -116 27 q-2 -23 -2 -60.5t-2.5 -62t-8.5 -50.5t-25.5 -39t-52.5 -13q-127 0 -175 49t-48 170q0 78 19 199q-104 98 -105 145zM475 428q51 -12 115 -12q102 0 162.5 112.5t60.5 243.5t-47 203t-121 72q-14 0 -47 -5q-100 -471 -123 -614z" />
<glyph unicode="&#xdf;" horiz-adv-x="1304" d="M-82 -371q0 262 68.5 589t180.5 618.5t276.5 490.5t334.5 199q143 0 227.5 -74t84.5 -207q0 -227 -156 -401q12 -16 80.5 -87t98.5 -135.5t30 -164.5v-13q-2 -133 -64 -235h27q47 0 101.5 43t94 94t78.5 94t58 43q31 0 30 -77q0 -141 -117 -276.5t-307 -135.5 q-63 0 -139 47q-139 -76 -315 -76q-123 0 -184.5 62.5t-61.5 167.5q0 102 75 156.5t197 54.5q14 0 28.5 -2.5t27 -4.5t27 -7t23.5 -8t24.5 -11t22.5 -12.5t23.5 -14.5t22.5 -14t23.5 -15.5t21.5 -15.5q18 49 19 113q0 49 -34 105t-74 99.5t-73.5 103.5t-33.5 118 q0 49 22.5 87t53 65.5t62.5 56t54.5 74.5t22.5 108q0 96 -78 96q-84 0 -186.5 -153.5t-189.5 -389t-136 -481.5q-23 -115 -42.5 -223.5t-30.5 -183t-20.5 -144t-15.5 -112.5t-12 -82t-12 -59.5t-16.5 -35t-23 -19.5t-32.5 -5q-57 0 -127 84q-39 45 -39 106zM543 182.5 q0 -28.5 20 -43t49 -14.5q78 0 146 43q-92 76 -142 76q-31 0 -52 -16.5t-21 -45z" />
<glyph unicode="&#xe0;" d="M51 307q0 268 152 453q80 94 186.5 156.5t224.5 62.5q58 0 123 -12q43 -10 62 -21q29 59 69 60q61 0 129 -64.5t68 -116.5q-35 -78 -84 -161q-16 -88 -16 -267q0 -168 43 -168q37 0 106.5 63.5t130 127t74.5 63.5q37 0 37 -77q0 -135 -156 -273.5t-315 -138.5 q-106 0 -146 190q-123 -201 -366 -200q-143 0 -232.5 88t-89.5 235zM197 1511q0 55 17 78t75 23q127 0 135 -74q18 -231 190 -346q25 -16 25 -41q0 -14 -41 -14q-160 0 -280.5 98t-120.5 276zM352 360q0 -157 117 -157q78 0 148.5 60.5t105.5 182.5q6 244 41 394 q-166 -31 -289 -158t-123 -322z" />
<glyph unicode="&#xe1;" d="M51 307q0 268 152 453q80 94 186.5 156.5t224.5 62.5q58 0 123 -12q43 -10 62 -21q29 59 69 60q61 0 129 -64.5t68 -116.5q-35 -78 -84 -161q-16 -88 -16 -267q0 -168 43 -168q37 0 106.5 63.5t130 127t74.5 63.5q37 0 37 -77q0 -135 -156 -273.5t-315 -138.5 q-106 0 -146 190q-123 -201 -366 -200q-143 0 -232.5 88t-89.5 235zM352 360q0 -157 117 -157q78 0 148.5 60.5t105.5 182.5q6 244 41 394q-166 -31 -289 -158t-123 -322zM604 1165q0 23 31 39.5t51 18.5q41 10 78 32.5t61.5 46t52 64.5t41 65.5t37 73.5t33.5 68 q23 47 137 47q96 0 97 -33q0 -16 -33 -69q-47 -82 -73.5 -123t-77 -102.5t-95.5 -91.5t-111.5 -52.5t-146.5 -22.5q-82 0 -82 39z" />
<glyph unicode="&#xe2;" d="M51 307q0 268 152 453q80 94 186.5 156.5t224.5 62.5q58 0 123 -12q43 -10 62 -21q29 59 69 60q61 0 129 -64.5t68 -116.5q-35 -78 -84 -161q-16 -88 -16 -267q0 -168 43 -168q37 0 106.5 63.5t130 127t74.5 63.5q37 0 37 -77q0 -135 -156 -273.5t-315 -138.5 q-106 0 -146 190q-123 -201 -366 -200q-143 0 -232.5 88t-89.5 235zM276 1198q0 25 27 47q94 82 262 281q27 31 78 54.5t98 23.5q35 0 58 -15q72 -49 122 -103t109.5 -133t102.5 -128q12 -12 12 -25q0 -37 -65.5 -69.5t-131.5 -32.5q-45 0 -67 22q-47 51 -109.5 133 t-91.5 115q-92 -105 -162 -162q-59 -53 -156 -53q-86 0 -86 45zM352 360q0 -157 117 -157q78 0 148.5 60.5t105.5 182.5q6 244 41 394q-166 -31 -289 -158t-123 -322z" />
<glyph unicode="&#xe3;" d="M51 307q0 268 152 453q80 94 186.5 156.5t224.5 62.5q58 0 123 -12q43 -10 62 -21q29 59 69 60q61 0 129 -64.5t68 -116.5q-35 -78 -84 -161q-16 -88 -16 -267q0 -168 43 -168q37 0 106.5 63.5t130 127t74.5 63.5q37 0 37 -77q0 -135 -156 -273.5t-315 -138.5 q-106 0 -146 190q-123 -201 -366 -200q-143 0 -232.5 88t-89.5 235zM188 1280q-2 31 37 78q80 98 173.5 145t172.5 47q55 0 112.5 -34.5t96.5 -76.5t88.5 -77t89.5 -35q18 0 41 20.5t60 41t86 20.5q68 0 67 -37q0 -12 -6 -16q-96 -201 -309 -201q-57 0 -113.5 33t-94.5 70.5 t-89 70.5t-100 33q-37 0 -76 -68q-18 -29 -79.5 -44t-115.5 -15q-41 0 -41 45zM352 360q0 -157 117 -157q78 0 148.5 60.5t105.5 182.5q6 244 41 394q-166 -31 -289 -158t-123 -322z" />
<glyph unicode="&#xe4;" d="M51 307q0 268 152 453q80 94 186.5 156.5t224.5 62.5q58 0 123 -12q43 -10 62 -21q29 59 69 60q61 0 129 -64.5t68 -116.5q-35 -78 -84 -161q-16 -88 -16 -267q0 -168 43 -168q37 0 106.5 63.5t130 127t74.5 63.5q37 0 37 -77q0 -135 -156 -273.5t-315 -138.5 q-106 0 -146 190q-123 -201 -366 -200q-143 0 -232.5 88t-89.5 235zM338 1315q0 92 56.5 162.5t125.5 70.5q78 0 146 -145q-33 -78 -99.5 -124t-146.5 -46q-82 0 -82 82zM352 360q0 -157 117 -157q78 0 148.5 60.5t105.5 182.5q6 244 41 394q-166 -31 -289 -158t-123 -322z M748 1329q0 92 43 146.5t112 54.5q105 0 160 -68q-88 -229 -213 -229q-45 0 -73.5 28.5t-28.5 67.5z" />
<glyph unicode="&#xe5;" d="M51 307q0 268 152 453q80 94 186.5 156.5t224.5 62.5q58 0 123 -12q43 -10 62 -21q29 59 69 60q61 0 129 -64.5t68 -116.5q-35 -78 -84 -161q-16 -88 -16 -267q0 -168 43 -168q37 0 106.5 63.5t130 127t74.5 63.5q37 0 37 -77q0 -135 -156 -273.5t-315 -138.5 q-106 0 -146 190q-123 -201 -366 -200q-143 0 -232.5 88t-89.5 235zM352 360q0 -157 117 -157q78 0 148.5 60.5t105.5 182.5q6 244 41 394q-166 -31 -289 -158t-123 -322zM408 1436q0 102 75.5 164.5t184.5 62.5h22q18 6 37 6q98 0 204.5 -86t106.5 -178q0 -100 -113.5 -169 t-226.5 -69q-119 0 -204.5 76t-85.5 193zM608 1466q0 -63 39 -110t105 -47q86 -1 86 73q0 39 -38 77t-87 59q-8 -2 -25 -2q-39 0 -65 8q-14 -23 -15 -58z" />
<glyph unicode="&#xe6;" horiz-adv-x="1538" d="M51 307q0 268 152 453q80 94 186.5 156.5t224.5 62.5q197 0 289 -170q158 174 363 174q113 0 175 -54.5t62 -142.5q0 -41 -8 -77.5t-27.5 -69.5t-37 -58.5t-54.5 -53t-59.5 -45t-69.5 -44t-69.5 -38t-76.5 -38t-73 -36.5q27 -103 193 -103q92 0 177 40t133 87t88 87 t54 40q29 0 29 -71q0 -39 -18.5 -88.5t-64.5 -108.5t-112.5 -107.5t-177 -81t-244.5 -32.5q-227 0 -319 151q-180 -156 -393 -155q-143 0 -232.5 88t-89.5 235zM352 360q0 -157 117 -157q96 0 254 102v2q0 233 113 412q-84 61 -156 61q-143 0 -235.5 -120.5t-92.5 -299.5z M1028 477q221 172 221 273q0 51 -63 51q-68 0 -107 -94.5t-51 -229.5z" />
<glyph unicode="&#xe7;" horiz-adv-x="747" d="M41 307q0 285 171 480.5t390 195.5q141 0 141 -125q0 -70 -28.5 -114t-71.5 -44q-27 0 -60.5 30t-58.5 30q-86 0 -134 -123t-48 -277q0 -74 57.5 -105.5t116.5 -31.5q55 0 117.5 41t104.5 89t81 89t55 41q37 0 37 -77q0 -47 -27.5 -107.5t-77.5 -124t-138 -114 t-193 -64.5q-4 -53 -12 -98q66 0 101.5 -36t35.5 -98q0 -106 -96 -210.5t-217 -104.5q-74 0 -134.5 55.5t-60.5 124.5q0 25 41 44.5t84 19.5q37 0 55.5 -20.5t30.5 -55.5t27 -51q82 82 82 168q0 35 -17 63q-45 -12 -82 -12q-59 0 -59 25q0 8 2 12q29 70 33 178 q-109 23 -178.5 100.5t-69.5 206.5z" />
<glyph unicode="&#xe8;" horiz-adv-x="856" d="M41 307q0 287 162 481.5t381 194.5q113 0 175 -54.5t62 -142.5q0 -70 -26.5 -121t-82 -87.5t-105.5 -59t-134 -54.5t-131 -52v-52q0 -76 60.5 -106.5t136.5 -30.5q92 0 177 40t133 87t88 87t54 40q29 0 29 -71q0 -39 -18.5 -88.5t-64.5 -108.5t-112.5 -107.5t-177 -81 t-244.5 -32.5q-152 0 -257 81t-105 238zM104 1511q0 55 17.5 78t75.5 23q127 0 135 -74q18 -231 190 -346q25 -16 25 -41q0 -14 -41 -14q-160 0 -281 98t-121 276zM356 553q25 16 66 40.5t60.5 38t43 33t32.5 40t9 45.5q0 51 -63 51q-109 0 -148 -248z" />
<glyph unicode="&#xe9;" horiz-adv-x="856" d="M41 307q0 287 162 481.5t381 194.5q113 0 175 -54.5t62 -142.5q0 -70 -26.5 -121t-82 -87.5t-105.5 -59t-134 -54.5t-131 -52v-52q0 -76 60.5 -106.5t136.5 -30.5q92 0 177 40t133 87t88 87t54 40q29 0 29 -71q0 -39 -18.5 -88.5t-64.5 -108.5t-112.5 -107.5t-177 -81 t-244.5 -32.5q-152 0 -257 81t-105 238zM356 553q25 16 66 40.5t60.5 38t43 33t32.5 40t9 45.5q0 51 -63 51q-109 0 -148 -248zM512 1165q0 23 30.5 39.5t51.5 18.5q41 10 78 32.5t61.5 46t52 64.5t41 65.5t37 73.5t33.5 68q25 47 137 47q96 0 96 -33q1 -16 -32 -69 q-47 -82 -74 -123t-77 -102.5t-95 -91.5t-111.5 -52.5t-146.5 -22.5q-82 0 -82 39z" />
<glyph unicode="&#xea;" horiz-adv-x="856" d="M41 307q0 287 162 481.5t381 194.5q113 0 175 -54.5t62 -142.5q0 -70 -26.5 -121t-82 -87.5t-105.5 -59t-134 -54.5t-131 -52v-52q0 -76 60.5 -106.5t136.5 -30.5q92 0 177 40t133 87t88 87t54 40q29 0 29 -71q0 -39 -18.5 -88.5t-64.5 -108.5t-112.5 -107.5t-177 -81 t-244.5 -32.5q-152 0 -257 81t-105 238zM184 1198q0 25 27 47q94 82 262 281q27 31 78 54.5t98 23.5q35 0 58 -15q72 -49 122 -103t109 -133t102 -128q12 -12 13 -25q0 -37 -65.5 -69.5t-131.5 -32.5q-45 0 -68 22q-47 51 -109.5 133t-90.5 115q-92 -105 -162 -162 q-59 -53 -156 -53q-86 0 -86 45zM356 553q25 16 66 40.5t60.5 38t43 33t32.5 40t9 45.5q0 51 -63 51q-109 0 -148 -248z" />
<glyph unicode="&#xeb;" horiz-adv-x="856" d="M41 307q0 287 162 481.5t381 194.5q113 0 175 -54.5t62 -142.5q0 -70 -26.5 -121t-82 -87.5t-105.5 -59t-134 -54.5t-131 -52v-52q0 -76 60.5 -106.5t136.5 -30.5q92 0 177 40t133 87t88 87t54 40q29 0 29 -71q0 -39 -18.5 -88.5t-64.5 -108.5t-112.5 -107.5t-177 -81 t-244.5 -32.5q-152 0 -257 81t-105 238zM246 1315q0 92 56 162.5t126 70.5q77 0 145 -145q-33 -78 -99 -124t-146 -46q-82 0 -82 82zM356 553q25 16 66 40.5t60.5 38t43 33t32.5 40t9 45.5q0 51 -63 51q-109 0 -148 -248zM655 1329q0 92 43 146.5t113 54.5q105 0 160 -68 q-88 -229 -213 -229q-45 0 -74 28.5t-29 67.5z" />
<glyph unicode="&#xec;" horiz-adv-x="595" d="M74 1511q0 55 17.5 78t74.5 23q127 0 135 -74q2 -29 5 -79t5 -69.5t8.5 -54.5t19.5 -64.5t34 -68.5q20 -41 20 -51q0 -14 -41 -14q-88 0 -183 121.5t-95 252.5zM102 377q0 213 65.5 427t168.5 214q57 0 89 -72t32 -125q-2 -100 -50.5 -290.5t-48.5 -237.5 q0 -29 20.5 -46.5t51.5 -17.5q45 0 166 124t135 124q29 0 29 -71q0 -137 -144.5 -274.5t-308.5 -137.5q-205 0 -205 383z" />
<glyph unicode="&#xed;" horiz-adv-x="595" d="M102 377q0 213 65.5 427t168.5 214q57 0 89 -72t32 -125q-2 -100 -50.5 -290.5t-48.5 -237.5q0 -29 20.5 -46.5t51.5 -17.5q45 0 166 124t135 124q29 0 29 -71q0 -137 -144.5 -274.5t-308.5 -137.5q-205 0 -205 383zM278.5 1165q0.5 39 79.5 70q59 18 103.5 60t64 76 t50 103.5t45.5 98.5q23 47 137 47q98 0 98 -33q0 -16 -33 -69q-229 -391 -465 -392q-80 0 -79.5 39z" />
<glyph unicode="&#xee;" horiz-adv-x="595" d="M102 377q0 213 65.5 427t168.5 214q57 0 89 -72t32 -125q-2 -100 -50.5 -290.5t-48.5 -237.5q0 -29 20.5 -46.5t51.5 -17.5q45 0 166 124t135 124q29 0 29 -71q0 -137 -144.5 -274.5t-308.5 -137.5q-205 0 -205 383zM131 1194l15 29q189 380 300 383q45 0 58 -15 q63 -66 96 -115t71 -119.5t74 -129.5q12 -16 13 -25q0 -39 -47 -70.5t-109 -31.5q-51 -1 -67 22q-72 96 -134 230q-6 -12 -21 -41t-21.5 -40t-19.5 -32.5t-20.5 -30t-20.5 -21.5t-24.5 -18.5t-27 -9.5t-31.5 -4q-84 0 -84 39z" />
<glyph unicode="&#xef;" horiz-adv-x="595" d="M63 1270q0 84 48.5 151.5t105.5 67.5q68 0 125 -137q-27 -74 -84 -117t-125 -43q-70 0 -70 78zM102 377q0 213 65.5 427t168.5 214q57 0 89 -72t32 -125q-2 -100 -50.5 -290.5t-48.5 -237.5q0 -29 20.5 -46.5t51.5 -17.5q45 0 166 124t135 124q29 0 29 -71 q0 -137 -144.5 -274.5t-308.5 -137.5q-205 0 -205 383zM360 1282q0 86 36 138.5t93 52.5q89 -1 138 -64q-76 -217 -181 -217q-39 0 -62.5 27.5t-23.5 62.5z" />
<glyph unicode="&#xf0;" horiz-adv-x="1200" d="M51 307q0 268 152 453q80 94 186.5 156.5t224.5 62.5q74 0 123 -12l47 -13q14 74 27 119q-33 6 -82 13.5t-82 12.5t-64.5 10t-48 10t-16.5 11q0 57 55.5 97.5t128.5 40.5q55 -1 121 -13q35 -6 39 -8q49 139 95.5 210t97.5 71q57 0 105 -75t48 -122q0 -78 -30 -143 q39 -8 79.5 -15.5t60 -9.5t37 -7t23.5 -11t6 -17q0 -37 -59 -89t-100 -52q-23 0 -152 29l-16 -25q0 -131 -6.5 -231.5t-24.5 -210t-49 -189t-83 -154.5t-123 -121t-171 -73.5t-227 -27.5q-143 0 -232.5 88t-89.5 235zM352 360q0 -157 117 -157q80 0 133 43t81 125t40 150.5 t22.5 174t16.5 144.5q-164 -31 -287 -159t-123 -321z" />
<glyph unicode="&#xf1;" horiz-adv-x="1099" d="M92 168q0 309 26.5 470t135.5 327q37 57 80 57q39 0 77 -43t62 -98q96 100 242 100q137 0 209.5 -62.5t72.5 -173.5q0 -115 -43 -285.5t-43 -195.5q0 -35 23 -35q45 0 166 124t135 124q29 0 29 -71q0 -137 -144.5 -274.5t-308.5 -137.5t-164 262q0 119 32 251t32 181 q0 74 -93 74q-76 0 -153.5 -126t-104.5 -261v-15q0 -61 21.5 -138t21.5 -99q0 -41 -37.5 -74t-136.5 -72q-27 -10 -47 -10q-90 0 -90 201zM254 1280q-2 31 37 78q80 98 173 145t173 47q55 0 112.5 -34.5t96.5 -76.5t88 -77t90 -35q18 0 40.5 20.5t59.5 41t86 20.5 q68 0 68 -37q0 -12 -6 -16q-96 -201 -309 -201q-57 0 -113.5 33t-94.5 70.5t-89.5 70.5t-100.5 33q-37 0 -76 -68q-18 -29 -79.5 -44t-114.5 -15q-41 0 -41 45z" />
<glyph unicode="&#xf2;" horiz-adv-x="1112" d="M51 387q0 242 155.5 419t405.5 177q113 0 209.5 -38t96.5 -83q0 -33 -160 -33q-176 0 -291 -114.5t-115 -294.5q0 -96 56.5 -156.5t162.5 -60.5q88 0 154 41q-145 100 -145 284q0 100 73.5 181.5t196.5 81.5q96 0 147.5 -61.5t51.5 -162.5q0 -102 -48 -213h13 q53 0 94 19.5t61.5 43t41 43t36.5 19.5q29 0 29 -73q0 -117 -74 -180.5t-182 -63.5q-70 0 -131 12q-166 -190 -393 -190q-219 0 -332 116.5t-113 286.5zM162 1511q0 55 17.5 78t74.5 23q127 0 135 -74q18 -231 191 -346q25 -16 24 -41q0 -14 -41 -14q-160 0 -280.5 98 t-120.5 276zM817 547q0 -82 53 -135q35 72 35 145q0 68 -45 68q-16 0 -29.5 -25.5t-13.5 -52.5z" />
<glyph unicode="&#xf3;" horiz-adv-x="1112" d="M51 387q0 242 155.5 419t405.5 177q113 0 209.5 -38t96.5 -83q0 -33 -160 -33q-176 0 -291 -114.5t-115 -294.5q0 -96 56.5 -156.5t162.5 -60.5q88 0 154 41q-145 100 -145 284q0 100 73.5 181.5t196.5 81.5q96 0 147.5 -61.5t51.5 -162.5q0 -102 -48 -213h13 q53 0 94 19.5t61.5 43t41 43t36.5 19.5q29 0 29 -73q0 -117 -74 -180.5t-182 -63.5q-70 0 -131 12q-166 -190 -393 -190q-219 0 -332 116.5t-113 286.5zM569 1165q0 23 31 39.5t51 18.5q41 10 78 32.5t61.5 46t52 64.5t41 65.5t37 73.5t33.5 68q25 47 138 47q96 0 96 -33 q0 -16 -33 -69q-47 -82 -73.5 -123t-77 -102.5t-95.5 -91.5t-111.5 -52.5t-146.5 -22.5q-82 0 -82 39zM817 547q0 -82 53 -135q35 72 35 145q0 68 -45 68q-16 0 -29.5 -25.5t-13.5 -52.5z" />
<glyph unicode="&#xf4;" horiz-adv-x="1112" d="M51 387q0 242 155.5 419t405.5 177q113 0 209.5 -38t96.5 -83q0 -33 -160 -33q-176 0 -291 -114.5t-115 -294.5q0 -96 56.5 -156.5t162.5 -60.5q88 0 154 41q-145 100 -145 284q0 100 73.5 181.5t196.5 81.5q96 0 147.5 -61.5t51.5 -162.5q0 -102 -48 -213h13 q53 0 94 19.5t61.5 43t41 43t36.5 19.5q29 0 29 -73q0 -117 -74 -180.5t-182 -63.5q-70 0 -131 12q-166 -190 -393 -190q-219 0 -332 116.5t-113 286.5zM242 1198q0 25 26 47q94 82 262 281q27 31 78 54.5t99 23.5q35 0 57 -15q72 -49 122 -103t109.5 -133t102.5 -128 q12 -12 12 -25q0 -37 -65.5 -69.5t-131.5 -32.5q-45 0 -67 22q-47 51 -109.5 133t-91.5 115q-92 -105 -162 -162q-59 -53 -155 -53q-86 0 -86 45zM817 547q0 -82 53 -135q35 72 35 145q0 68 -45 68q-16 0 -29.5 -25.5t-13.5 -52.5z" />
<glyph unicode="&#xf5;" horiz-adv-x="1112" d="M51 387q0 242 155.5 419t405.5 177q113 0 209.5 -38t96.5 -83q0 -33 -160 -33q-176 0 -291 -114.5t-115 -294.5q0 -96 56.5 -156.5t162.5 -60.5q88 0 154 41q-145 100 -145 284q0 100 73.5 181.5t196.5 81.5q96 0 147.5 -61.5t51.5 -162.5q0 -102 -48 -213h13 q53 0 94 19.5t61.5 43t41 43t36.5 19.5q29 0 29 -73q0 -117 -74 -180.5t-182 -63.5q-70 0 -131 12q-166 -190 -393 -190q-219 0 -332 116.5t-113 286.5zM154 1280q-2 31 36 78q80 98 174.5 145t172.5 47q55 0 112.5 -34.5t96 -76.5t88 -77t90.5 -35q18 0 40.5 20.5t59.5 41 t86 20.5q68 0 68 -37q0 -12 -7 -16q-96 -201 -309 -201q-57 0 -113.5 33t-94.5 70.5t-89 70.5t-100 33q-37 0 -76 -68q-18 -29 -79.5 -44t-114.5 -15q-41 0 -41 45zM817 547q0 -82 53 -135q35 72 35 145q0 68 -45 68q-16 0 -29.5 -25.5t-13.5 -52.5z" />
<glyph unicode="&#xf6;" horiz-adv-x="1112" d="M51 387q0 242 155.5 419t405.5 177q113 0 209.5 -38t96.5 -83q0 -33 -160 -33q-176 0 -291 -114.5t-115 -294.5q0 -96 56.5 -156.5t162.5 -60.5q88 0 154 41q-145 100 -145 284q0 100 73.5 181.5t196.5 81.5q96 0 147.5 -61.5t51.5 -162.5q0 -102 -48 -213h13 q53 0 94 19.5t61.5 43t41 43t36.5 19.5q29 0 29 -73q0 -117 -74 -180.5t-182 -63.5q-70 0 -131 12q-166 -190 -393 -190q-219 0 -332 116.5t-113 286.5zM303 1315q0 92 56.5 162.5t125.5 70.5q78 0 146 -145q-33 -78 -99.5 -124t-146.5 -46q-82 0 -82 82zM713 1329 q0 92 43 146.5t112 54.5q105 0 160 -68q-88 -229 -213 -229q-45 0 -73.5 28.5t-28.5 67.5zM817 547q0 -82 53 -135q35 72 35 145q0 68 -45 68q-16 0 -29.5 -25.5t-13.5 -52.5z" />
<glyph unicode="&#xf7;" horiz-adv-x="966" d="M102 479v119h762v-119h-762zM397 229q0 90 86 90q47 0 65.5 -21.5t18.5 -68.5q0 -88 -84 -88q-86 0 -86 88zM397 844q0 90 86 90q47 0 65.5 -21.5t18.5 -68.5q0 -88 -84 -88q-86 0 -86 88z" />
<glyph unicode="&#xf8;" horiz-adv-x="1107" d="M41 18q-1 49 22 76q25 23 56 53q-72 102 -72 240q0 242 155.5 419t405.5 177q92 0 207 -33q71 92 110 149l9 11l1 -1q3 -3 7 -3q27 0 39 -37t12 -78q0 -59 -32 -102q76 -51 75 -109q0 -14 -18 -14q-12 0 -125 35l-107 -119q-88 -98 -181 -203.5t-141 -162t-52 -60.5 q59 -53 155 -53q135 0 226 96q-43 76 -43 168q0 98 37.5 157.5t117.5 59.5q139 0 139 -178q0 -68 -36 -152h2q53 0 94 19.5t61.5 43t41 43t36.5 19.5q29 0 29 -73q0 -117 -74 -180.5t-182 -63.5q-63 0 -113 24q-176 -203 -411 -202q-137 0 -244 53q-109 -135 -148 -135 q-59 0 -59 116zM348 420q0 -25 2 -35q154 166 371 442q-164 -10 -268.5 -123.5t-104.5 -283.5z" />
<glyph unicode="&#xf9;" horiz-adv-x="1091" d="M41 233q0 84 65 209l60 504q61 49 182 49q66 0 87.5 -52t21.5 -146q0 -78 -48.5 -246t-48.5 -268q0 -74 93 -74q53 0 99 49t75.5 128t48 153.5t29.5 146.5q-6 43 -7 178q0 137 213 137q49 0 64.5 -31.5t15.5 -101.5q0 -115 -44 -327.5t-44 -276.5q0 -35 23 -35 q45 0 165.5 124t135.5 124q29 0 28 -71q0 -137 -144 -274.5t-308 -137.5q-131 0 -150 180q-102 -184 -297 -184q-145 0 -230 61.5t-85 181.5zM131 1511q0 55 17.5 78t74.5 23q127 0 135 -74q18 -231 191 -346q25 -16 24 -41q0 -14 -41 -14q-160 0 -280.5 98t-120.5 276z" />
<glyph unicode="&#xfa;" horiz-adv-x="1091" d="M41 233q0 84 65 209l60 504q61 49 182 49q66 0 87.5 -52t21.5 -146q0 -78 -48.5 -246t-48.5 -268q0 -74 93 -74q53 0 99 49t75.5 128t48 153.5t29.5 146.5q-6 43 -7 178q0 137 213 137q49 0 64.5 -31.5t15.5 -101.5q0 -115 -44 -327.5t-44 -276.5q0 -35 23 -35 q45 0 165.5 124t135.5 124q29 0 28 -71q0 -137 -144 -274.5t-308 -137.5q-131 0 -150 180q-102 -184 -297 -184q-145 0 -230 61.5t-85 181.5zM539 1165q0 23 30.5 39.5t51.5 18.5q41 10 77.5 32.5t61 46t52.5 64.5t41 65.5t36.5 73.5t34.5 68q23 47 137 47q96 0 96 -33 q0 -16 -33 -69q-47 -82 -73.5 -123t-76.5 -102.5t-95 -91.5t-112 -52.5t-146 -22.5q-82 0 -82 39z" />
<glyph unicode="&#xfb;" horiz-adv-x="1091" d="M41 233q0 84 65 209l60 504q61 49 182 49q66 0 87.5 -52t21.5 -146q0 -78 -48.5 -246t-48.5 -268q0 -74 93 -74q53 0 99 49t75.5 128t48 153.5t29.5 146.5q-6 43 -7 178q0 137 213 137q49 0 64.5 -31.5t15.5 -101.5q0 -115 -44 -327.5t-44 -276.5q0 -35 23 -35 q45 0 165.5 124t135.5 124q29 0 28 -71q0 -137 -144 -274.5t-308 -137.5q-131 0 -150 180q-102 -184 -297 -184q-145 0 -230 61.5t-85 181.5zM211 1198q0 25 27 47q94 82 262 281q27 31 78 54.5t98 23.5q35 0 57 -15q72 -49 122 -103t109.5 -133t102.5 -128q12 -12 12 -25 q0 -37 -65.5 -69.5t-130.5 -32.5q-45 0 -68 22q-47 51 -109.5 133t-91.5 115q-91 -105 -161 -162q-59 -53 -156 -53q-86 0 -86 45z" />
<glyph unicode="&#xfc;" horiz-adv-x="1091" d="M41 233q0 84 65 209l60 504q61 49 182 49q66 0 87.5 -52t21.5 -146q0 -78 -48.5 -246t-48.5 -268q0 -74 93 -74q53 0 99 49t75.5 128t48 153.5t29.5 146.5q-6 43 -7 178q0 137 213 137q49 0 64.5 -31.5t15.5 -101.5q0 -115 -44 -327.5t-44 -276.5q0 -35 23 -35 q45 0 165.5 124t135.5 124q29 0 28 -71q0 -137 -144 -274.5t-308 -137.5q-131 0 -150 180q-102 -184 -297 -184q-145 0 -230 61.5t-85 181.5zM272 1315q0 92 56.5 162.5t126.5 70.5q77 0 145 -145q-33 -78 -99.5 -124t-146.5 -46q-82 0 -82 82zM682 1329q0 92 43 146.5 t113 54.5q104 0 159 -68q-88 -229 -213 -229q-45 0 -73.5 28.5t-28.5 67.5z" />
<glyph unicode="&#xfd;" horiz-adv-x="1095" d="M10 -289q0 37 13.5 65.5t45 50t64.5 38t89.5 31t102.5 24.5t120.5 25.5t127.5 27.5q27 111 39 177q-102 -141 -274 -142q-143 0 -224 60.5t-81 183.5q0 84 65 209l60 485q61 49 172 49q66 0 87 -52t21 -146q0 -78 -48 -237t-48 -259q0 -74 92 -74q74 0 117 49.5t74 143.5 q31 129 84 314.5t71 230.5q23 57 80 57q55 0 106.5 -78t51.5 -125q0 -143 -176 -723q100 76 189 174.5t134 152.5t66 54q29 0 29 -71q0 -125 -146.5 -298.5t-351.5 -265.5q-25 -82 -41 -128t-51 -106.5t-75 -92t-106.5 -54t-152.5 -22.5q-133 0 -229.5 79t-96.5 193z M199 -313q0 -41 45 -65.5t90 -24.5q98 0 174 167q-49 -10 -105.5 -18t-88 -12t-61.5 -9.5t-42 -14.5t-12 -23zM539 1165q0 23 30.5 39.5t51.5 18.5q41 10 77.5 32.5t61 46t52.5 64.5t41 65.5t36.5 73.5t34.5 68q23 47 137 47q96 0 96 -33q0 -16 -33 -69q-47 -82 -73.5 -123 t-76.5 -102.5t-95 -91.5t-112 -52.5t-146 -22.5q-82 0 -82 39z" />
<glyph unicode="&#xfe;" horiz-adv-x="1122" d="M102 168q0 289 88.5 692.5t227.5 614.5q37 55 82 55q55 0 92 -75t37 -126q-2 -72 -86 -191.5t-84 -203.5v-6q131 55 301 55q145 0 243.5 -89t98.5 -230q0 -219 -123 -335t-311 -116q-150 0 -265 68q0 -31 -1 -68t-1 -69.5t-8 -62.5t-24 -42q-86 -70 -170 -70 q-96 0 -97 199zM414 455q80 -19 168 -19q115 0 167 39t52 135q0 61 -60.5 99.5t-113.5 38.5q-123 0 -197 -54q-16 -127 -16 -221v-18z" />
<glyph unicode="&#xff;" horiz-adv-x="1095" d="M10 -289q0 37 13.5 65.5t45 50t64.5 38t89.5 31t102.5 24.5t120.5 25.5t127.5 27.5q27 111 39 177q-102 -141 -274 -142q-143 0 -224 60.5t-81 183.5q0 84 65 209l60 485q61 49 172 49q66 0 87 -52t21 -146q0 -78 -48 -237t-48 -259q0 -74 92 -74q74 0 117 49.5t74 143.5 q31 129 84 314.5t71 230.5q23 57 80 57q55 0 106.5 -78t51.5 -125q0 -143 -176 -723q100 76 189 174.5t134 152.5t66 54q29 0 29 -71q0 -125 -146.5 -298.5t-351.5 -265.5q-25 -82 -41 -128t-51 -106.5t-75 -92t-106.5 -54t-152.5 -22.5q-133 0 -229.5 79t-96.5 193z M199 -313q0 -41 45 -65.5t90 -24.5q98 0 174 167q-49 -10 -105.5 -18t-88 -12t-61.5 -9.5t-42 -14.5t-12 -23zM272 1315q0 92 56.5 162.5t126.5 70.5q77 0 145 -145q-33 -78 -99.5 -124t-146.5 -46q-82 0 -82 82zM682 1329q0 92 43 146.5t113 54.5q104 0 159 -68 q-88 -229 -213 -229q-45 0 -73.5 28.5t-28.5 67.5z" />
<glyph unicode="&#x152;" horiz-adv-x="2355" d="M143 612q0 242 99.5 453t292 344t440.5 133q227 0 358 -143q0 4 2 6q41 92 152 92q156 0 493.5 13.5t360.5 13.5q55 0 55 -43q0 -8 -7 -25.5t-18.5 -43.5t-17.5 -38q-31 -80 -117 -80q-174 0 -596 4l-77 -444q86 0 203.5 -2t198.5 -3t112 -1q53 0 53 -39q0 -6 -7 -23.5 t-18.5 -40t-15.5 -34.5q-16 -41 -42 -58.5t-71 -17.5q-20 0 -196 5t-250 7q-39 -258 -49 -446q250 12 411 12q106 0 182 20.5t107 45t62.5 45t62.5 20.5q37 0 37 -78q0 -289 -574 -289q-25 0 -163 8.5t-193 10.5q-59 -27 -170 -27q-43 0 -56 39t-13 129q-170 -154 -373 -153 q-168 0 -297 52t-206 142t-116 199.5t-39 234.5zM465 690q0 -203 94 -318.5t262 -115.5q197 0 359 121q31 553 104 866q-10 6 -52 28.5t-69.5 36t-84 26t-120.5 12.5q-147 0 -263.5 -102.5t-173 -250t-56.5 -303.5z" />
<glyph unicode="&#x153;" horiz-adv-x="1640" d="M51 387q0 242 155.5 419t405.5 177q125 0 190.5 -54.5t65.5 -133.5q0 -158 -53 -158q-20 0 -46 25.5t-46.5 55.5t-56 55.5t-74.5 25.5q-109 0 -174.5 -112t-65.5 -267q0 -96 56.5 -156.5t162.5 -60.5q137 0 256 59q-2 14 -2 45q0 287 162 481.5t381 194.5 q113 0 175.5 -54.5t62.5 -142.5q0 -41 -8.5 -77.5t-28 -69.5t-36.5 -58.5t-54 -53t-59.5 -45t-69.5 -44t-70 -38t-77 -38t-73 -36.5q27 -103 193 -103q92 0 177 40t133 87t88 87t55 40q29 0 28 -71q0 -39 -18.5 -88.5t-64.5 -108.5t-112.5 -107.5t-177 -81t-243.5 -32.5 q-205 0 -303 127q-182 -131 -389 -131q-219 0 -332 116.5t-113 286.5zM1130 477q221 172 222 273q-1 51 -64 51q-68 0 -106.5 -94.5t-51.5 -229.5z" />
<glyph unicode="&#x178;" horiz-adv-x="1325" d="M0 1280q0 111 102.5 183.5t245.5 72.5q94 0 156.5 -51t82 -110.5t19.5 -123.5q0 -109 -70.5 -358.5t-70.5 -390.5q0 -123 108 -123q121 0 211 143q29 127 96.5 388t84.5 339q51 244 139 244q98 0 146 -45t48 -154q0 -102 -73 -241q-76 -451 -148 -801q236 94 299 166 q51 59 84 59q29 0 29 -78q0 -162 -453 -354q-16 -70 -36.5 -135.5t-66.5 -155.5t-104.5 -155.5t-151.5 -112.5t-204 -47q-172 0 -289.5 75.5t-117.5 225.5q0 35 23.5 69.5t76.5 69.5t101 61.5t138.5 61.5t144.5 55.5t159 57.5l14 4q0 59 10 127q-131 -72 -280 -72 q-145 0 -222 90t-77 252q0 100 82.5 337t82.5 335q0 137 -83 137q-37 0 -99.5 -51t-103.5 -51q-33 0 -33 57zM274 -285q0 -49 61.5 -83.5t135.5 -34.5q123 0 207 313q-51 -18 -111.5 -39t-94.5 -32t-73 -25.5t-57 -23.5t-36.5 -21.5t-25 -24.5t-6.5 -29zM457 1817 q0 92 56 162.5t126 70.5q77 0 145 -145q-33 -78 -99.5 -124t-145.5 -46q-82 0 -82 82zM866 1831q0 92 43 146.5t113 54.5q105 0 160 -68q-88 -229 -213 -229q-45 0 -74 28.5t-29 67.5z" />
<glyph unicode="&#x2c6;" horiz-adv-x="1024" d="M78 1198q0 25 26 47q94 82 263 281q27 31 78 54.5t98 23.5q35 0 57 -15q72 -49 122 -103t109.5 -133t102.5 -128q12 -12 12 -25q0 -37 -65.5 -69.5t-130.5 -32.5q-45 0 -68 22q-47 51 -109.5 133t-91.5 115q-92 -105 -162 -162q-59 -53 -155 -53q-86 0 -86 45z" />
<glyph unicode="&#x2dc;" horiz-adv-x="1024" d="M0 1280q-2 31 37 78q80 98 173 145t173 47q55 0 112.5 -34.5t96.5 -76.5t88 -77t90 -35q18 0 41 20.5t59.5 41t85.5 20.5q68 0 68 -37q0 -12 -6 -16q-96 -201 -309 -201q-57 0 -113.5 33t-94.5 70.5t-89.5 70.5t-100.5 33q-36 0 -75 -68q-18 -29 -80 -44t-115 -15 q-41 0 -41 45z" />
<glyph unicode="&#x2000;" horiz-adv-x="1057" />
<glyph unicode="&#x2001;" horiz-adv-x="2114" />
<glyph unicode="&#x2002;" horiz-adv-x="1057" />
<glyph unicode="&#x2003;" horiz-adv-x="2114" />
<glyph unicode="&#x2004;" horiz-adv-x="704" />
<glyph unicode="&#x2005;" horiz-adv-x="528" />
<glyph unicode="&#x2006;" horiz-adv-x="352" />
<glyph unicode="&#x2007;" horiz-adv-x="352" />
<glyph unicode="&#x2008;" horiz-adv-x="264" />
<glyph unicode="&#x2009;" horiz-adv-x="422" />
<glyph unicode="&#x200a;" horiz-adv-x="117" />
<glyph unicode="&#x2010;" horiz-adv-x="802" d="M94 573q0 166 281 166q68 0 188.5 -3t134.5 -3q25 0 25 -34.5t-52.5 -94t-84.5 -59.5q-12 0 -86 7t-97 7q-80 0 -178 -2t-119 -2q-12 0 -12 18z" />
<glyph unicode="&#x2011;" horiz-adv-x="802" d="M94 573q0 166 281 166q68 0 188.5 -3t134.5 -3q25 0 25 -34.5t-52.5 -94t-84.5 -59.5q-12 0 -86 7t-97 7q-80 0 -178 -2t-119 -2q-12 0 -12 18z" />
<glyph unicode="&#x2012;" horiz-adv-x="802" d="M94 573q0 166 281 166q68 0 188.5 -3t134.5 -3q25 0 25 -34.5t-52.5 -94t-84.5 -59.5q-12 0 -86 7t-97 7q-80 0 -178 -2t-119 -2q-12 0 -12 18z" />
<glyph unicode="&#x2013;" horiz-adv-x="901" d="M-31 575q0 55 43.5 106.5t96.5 51.5h882q25 0 25 -34.5t-52.5 -88t-84.5 -53.5q-520 12 -611 12l-286 -12q-12 0 -13 18z" />
<glyph unicode="&#x2014;" horiz-adv-x="1417" d="M-31 575q0 55 43.5 106.5t96.5 51.5h1398q25 0 25 -34.5t-52.5 -88t-84.5 -53.5q-762 12 -852 12l-561 -12q-12 0 -13 18z" />
<glyph unicode="&#x2018;" horiz-adv-x="708" d="M123 1151q0 150 121 298t268 148q94 0 94 -55q0 -27 -21.5 -45t-49 -30.5t-57 -37t-42.5 -59.5q70 -45 70 -143q0 -94 -73 -154.5t-171 -60.5q-61 0 -100 33.5t-39 105.5z" />
<glyph unicode="&#x2019;" horiz-adv-x="708" d="M123 1067q0 27 21.5 45t49 30.5t57.5 37t42 59.5q-70 45 -70 143q0 94 73 154.5t171 60.5q61 0 100 -33.5t39 -105.5q0 -150 -120.5 -298t-268.5 -148q-94 0 -94 55z" />
<glyph unicode="&#x201a;" horiz-adv-x="749" d="M164 -193q0 27 21.5 45.5t49 31t57.5 37t42 59.5q-70 45 -70 143q0 94 73 154.5t171 60.5q61 0 100 -34t39 -105q0 -150 -120.5 -298.5t-268.5 -148.5q-94 0 -94 55z" />
<glyph unicode="&#x201c;" horiz-adv-x="1120" d="M102 1171q0 137 113 271.5t256 134.5q94 0 94 -55q0 -27 -21.5 -45.5t-49 -30.5t-57 -37t-42.5 -59q70 -46 70 -144q0 -70 -64.5 -122t-158.5 -52q-61 0 -100.5 34t-39.5 105zM514 1151q0 150 121 298t268 148q94 0 94 -55q0 -27 -21.5 -45t-49 -30.5t-57 -37 t-42.5 -59.5q70 -45 70 -143q0 -94 -72.5 -154.5t-171.5 -60.5q-61 0 -100 33.5t-39 105.5z" />
<glyph unicode="&#x201d;" horiz-adv-x="1120" d="M123 1067q0 27 21.5 45t49 30.5t57.5 37t42 59.5q-70 45 -70 143q0 94 73 154.5t171 60.5q61 0 100 -33.5t39 -105.5q0 -150 -120.5 -298t-268.5 -148q-94 0 -94 55zM555 1087q0 27 21.5 45.5t49 31t57.5 37t42 59.5q-70 45 -70 143q0 70 64.5 122t159.5 52q61 0 100 -34 t39 -105q0 -139 -112.5 -272.5t-256.5 -133.5q-94 0 -94 55z" />
<glyph unicode="&#x201e;" horiz-adv-x="1161" d="M164 -193q0 27 21.5 45.5t49 31t57.5 37t42 59.5q-70 45 -70 143q0 94 73 154.5t171 60.5q61 0 100 -34t39 -105q0 -150 -120.5 -298.5t-268.5 -148.5q-94 0 -94 55zM596 -172q0 27 21.5 45t49 30.5t57.5 37t42 59.5q-70 45 -70 143q0 70 64.5 122t159.5 52 q61 0 100 -33.5t39 -105.5q0 -139 -112.5 -272t-256.5 -133q-94 0 -94 55z" />
<glyph unicode="&#x2022;" horiz-adv-x="933" d="M246 612.5q0 120.5 51 176t170 55.5q123 0 172 -54.5t49 -177.5q0 -121 -52 -175t-169 -54q-119 0 -170 54.5t-51 175z" />
<glyph unicode="&#x2026;" horiz-adv-x="2541" d="M1919 78q41 106 124 173.5t175 67.5q98 0 99 -98q0 -111 -68 -195.5t-152 -84.5q-55 0 -102 39t-76 98zM1072 78q41 106 124 173.5t175 67.5q98 0 99 -98q0 -111 -68 -195.5t-152 -84.5q-55 0 -102 39t-76 98zM225 78q41 106 124 173.5t175 67.5q98 0 99 -98 q0 -111 -68 -195.5t-152 -84.5q-55 0 -102 39t-76 98z" />
<glyph unicode="&#x202f;" horiz-adv-x="422" />
<glyph unicode="&#x2039;" horiz-adv-x="1103" d="M205 457q0 12 31 49q135 180 325.5 322.5t364.5 142.5q55 0 55 -27q0 -18 -25 -35q-47 -31 -231 -192.5t-227 -216.5q455 -375 454 -391q0 -27 -72.5 -60t-129.5 -33q-27 0 -48 13q-41 27 -78.5 54.5t-64.5 48t-72 59t-69.5 60t-89 81t-99.5 90.5q-25 20 -24 35z" />
<glyph unicode="&#x203a;" horiz-adv-x="1103" d="M205 43q0 18 24 35q47 31 231.5 192.5t227.5 216.5q-455 369 -455 392q0 27 73 59.5t130 32.5q27 0 47 -13q41 -27 79 -54t64.5 -47.5t71.5 -59.5t70 -60.5t89.5 -81t98.5 -90.5q25 -20 25 -35q0 -12 -31 -49q-135 -180 -325.5 -322.5t-364.5 -142.5q-55 0 -55 27z" />
<glyph unicode="&#x205f;" horiz-adv-x="528" />
<glyph unicode="&#x20ac;" horiz-adv-x="1357" d="M0 555q0 55 43 106.5t96 51.5h115q4 25 16 78l-155 -9q-12 0 -13 19q0 55 43.5 106t96.5 51h80q104 258 297.5 424t445.5 166q166 0 260 -82t94 -235q0 -78 -37 -78q-31 0 -73 59q-94 133 -258 134q-137 0 -246 -109t-174 -279h493q25 0 25 -34.5t-52.5 -88t-84.5 -53.5 q-248 6 -432 11q-6 -27 -15 -80h457q25 0 25 -35t-52.5 -88t-85.5 -53q-184 4 -352 8q18 -332 299 -332q119 0 241 55.5t199 155.5q45 59 74 59q31 0 31 -77q0 -190 -175 -306t-405 -116q-276 0 -430.5 140t-154.5 386v37l-224 -10q-12 0 -12 18z" />
<glyph unicode="&#x2122;" horiz-adv-x="3077" d="M1130 1280q0 111 102.5 183.5t245.5 72.5q129 0 177 -72.5t53 -208.5q154 285 383 285q90 0 151.5 -29.5t92 -87t43 -122t12.5 -152.5v-16q133 184 315 184q258 0 258 -311q0 -143 -61.5 -400.5t-61.5 -298.5q0 -78 53 -78q37 0 106.5 63.5t130 127t75.5 63.5 q37 0 36 -77q0 -135 -155.5 -273.5t-315.5 -138.5q-102 0 -156 58.5t-54 148.5q0 80 78.5 354t78.5 383q0 98 -59 98q-78 0 -173 -121.5t-164 -305t-75 -347.5q12 -78 12 -112q0 -76 -64.5 -128.5t-143.5 -52.5q-45 0 -69 44t-24 116q0 76 99.5 430t99.5 518q0 184 -104 185 q-84 0 -163 -85t-134.5 -220.5t-91 -255t-60.5 -236.5q0 -6 -1 -19.5t-1 -19.5q39 -195 39 -254q0 -111 -84 -152q-106 -51 -152 -51q-102 0 -102 199q0 168 73.5 572.5t73.5 418.5q0 166 -83 166q-37 0 -99.5 -51t-103.5 -51q-33 0 -33 57zM61 1212q0 29 42 80t114 105.5 t187.5 93.5t242.5 39q141 0 393 -3t281 -3q55 0 55 -43q0 -8 -7 -25.5t-18.5 -43.5t-17.5 -38q-31 -80 -116 -80q-18 0 -85 2t-165.5 5.5t-151.5 5.5q-6 -82 -47 -307.5t-76 -473t-35 -436.5q0 -121 -235 -121q-25 0 -39 12.5t-21.5 42t-8.5 58.5t-1 86q0 188 87 567 t182 570q-135 -10 -310.5 -62.5t-222.5 -52.5q-27 0 -27 22z" />
<glyph unicode="&#xe000;" horiz-adv-x="1010" d="M0 1010h1010v-1010h-1010v1010z" />
<glyph unicode="&#xfb01;" horiz-adv-x="1449" d="M956 377q0 213 65.5 427t168.5 214q57 0 89 -72t32 -125q-2 -100 -50.5 -290.5t-48.5 -237.5q0 -29 20.5 -46.5t51.5 -17.5q45 0 166 124t135 124q29 0 29 -71q0 -137 -144.5 -274.5t-308.5 -137.5q-205 0 -205 383zM1190 1380q0 72 43 165t104 93q59 0 105.5 -85 t46.5 -136q0 -115 -75 -174t-169 -59q-55 84 -55 196zM10 -371q0 324 64.5 669t179.5 624q-68 29 -111 62.5t-43 57.5q0 37 27 37q29 0 89 -20.5t87 -24.5q233 492 526 492q131 0 180.5 -62.5t49.5 -177.5q0 -174 -162 -286.5t-395 -122.5q-59 -164 -92 -336q77 30 204 30 q31 -239 151 -239h1q43 0 81 24.5t59.5 55t43 55.5t33.5 25q35 0 35 -66q0 -125 -61.5 -203t-188.5 -78q-59 0 -110.5 11.5t-82 26t-52 29.5t-29.5 27l-9 11q45 -428 45 -545q0 -266 -313 -266q-104 0 -155.5 53t-51.5 137zM258 -326q0 -77 46 -77h1q27 0 46.5 39t19.5 98 q0 166 -39 416q-35 -147 -54.5 -291t-19.5 -185zM555 1010q76 33 111.5 50t87 51t73 73t21.5 88q0 53 -37 53q-43 0 -114.5 -83t-141.5 -232z" />
<glyph unicode="&#xfb02;" horiz-adv-x="1632" d="M936 401q0 260 78 513t235.5 432.5t358.5 179.5q88 0 138 -48t50 -135q0 -88 -56.5 -189t-129 -181t-190 -210t-193.5 -228v-82q0 -111 48 -166.5t128 -55.5q164 0 309 187q45 59 74 59t29 -71q0 -139 -140.5 -275.5t-302.5 -136.5q-186 0 -311 101.5t-125 305.5z M1253 791q70 109 159 216t126 161.5t37 111.5q0 45 -35 45q-72 0 -159 -147.5t-128 -386.5zM10 -371q0 324 64.5 669t179.5 624q-68 29 -111 62.5t-43 57.5q0 37 27 37q29 0 89 -20.5t87 -24.5q233 492 526 492q131 0 180.5 -62.5t49.5 -177.5q0 -174 -162 -286.5 t-395 -122.5q-59 -164 -92 -336q77 30 204 30q31 -239 151 -239h1q43 0 81 24.5t59.5 55t43 55.5t33.5 25q35 0 35 -66q0 -125 -61.5 -203t-188.5 -78q-59 0 -110.5 11.5t-82 26t-52 29.5t-29.5 27l-9 11q45 -428 45 -545q0 -266 -313 -266q-104 0 -155.5 53t-51.5 137z M258 -326q0 -77 46 -77h1q27 0 46.5 39t19.5 98q0 166 -39 416q-35 -147 -54.5 -291t-19.5 -185zM555 1010q76 33 111.5 50t87 51t73 73t21.5 88q0 53 -37 53q-43 0 -114.5 -83t-141.5 -232z" />
<glyph unicode="&#xfb03;" horiz-adv-x="2303" d="M1810 377q0 213 65.5 427t168.5 214q57 0 89 -72t32 -125q-2 -100 -50.5 -290.5t-48.5 -237.5q0 -29 20.5 -46.5t51.5 -17.5q45 0 166 124t135 124q29 0 29 -71q0 -137 -144.5 -274.5t-308.5 -137.5q-205 0 -205 383zM2044 1380q0 72 43 165t104 93q59 0 105.5 -85 t46.5 -136q0 -115 -75 -174t-169 -59q-55 84 -55 196zM864 -371q0 324 64.5 669t179.5 624q-68 29 -111 62.5t-43 57.5q0 37 27 37q29 0 89 -20.5t87 -24.5q233 492 526 492q131 0 180.5 -62.5t49.5 -177.5q0 -174 -162 -286.5t-395 -122.5q-59 -164 -92 -336q77 30 204 30 q31 -239 151 -239h1q43 0 81 24.5t59.5 55t43 55.5t33.5 25q35 0 35 -66q0 -125 -61.5 -203t-188.5 -78q-59 0 -110.5 11.5t-82 26t-52 29.5t-29.5 27l-9 11q45 -428 45 -545q0 -266 -313 -266q-104 0 -155.5 53t-51.5 137zM1112 -326q0 -77 46 -77h1q27 0 46.5 39t19.5 98 q0 166 -39 416q-35 -147 -54.5 -291t-19.5 -185zM1409 1010q76 33 111.5 50t87 51t73 73t21.5 88q0 53 -37 53q-43 0 -114.5 -83t-141.5 -232zM10 -371q0 324 64.5 669t179.5 624q-68 29 -111 62.5t-43 57.5q0 37 27 37q29 0 89 -20.5t87 -24.5q233 492 526 492 q131 0 180.5 -62.5t49.5 -177.5q0 -174 -162 -286.5t-395 -122.5q-59 -164 -92 -336q77 30 204 30q31 -239 151 -239h1q43 0 81 24.5t59.5 55t43 55.5t33.5 25q35 0 35 -66q0 -125 -61.5 -203t-188.5 -78q-59 0 -110.5 11.5t-82 26t-52 29.5t-29.5 27l-9 11q45 -428 45 -545 q0 -266 -313 -266q-104 0 -155.5 53t-51.5 137zM258 -326q0 -77 46 -77h1q27 0 46.5 39t19.5 98q0 166 -39 416q-35 -147 -54.5 -291t-19.5 -185zM555 1010q76 33 111.5 50t87 51t73 73t21.5 88q0 53 -37 53q-43 0 -114.5 -83t-141.5 -232z" />
<glyph unicode="&#xfb04;" horiz-adv-x="2486" d="M1790 401q0 260 78 513t235.5 432.5t358.5 179.5q88 0 138 -48t50 -135q0 -88 -56.5 -189t-129 -181t-190 -210t-193.5 -228v-82q0 -111 48 -166.5t128 -55.5q164 0 309 187q45 59 74 59t29 -71q0 -139 -140.5 -275.5t-302.5 -136.5q-186 0 -311 101.5t-125 305.5z M2107 791q70 109 159 216t126 161.5t37 111.5q0 45 -35 45q-72 0 -159 -147.5t-128 -386.5zM864 -371q0 324 64.5 669t179.5 624q-68 29 -111 62.5t-43 57.5q0 37 27 37q29 0 89 -20.5t87 -24.5q233 492 526 492q131 0 180.5 -62.5t49.5 -177.5q0 -174 -162 -286.5 t-395 -122.5q-59 -164 -92 -336q77 30 204 30q31 -239 151 -239h1q43 0 81 24.5t59.5 55t43 55.5t33.5 25q35 0 35 -66q0 -125 -61.5 -203t-188.5 -78q-59 0 -110.5 11.5t-82 26t-52 29.5t-29.5 27l-9 11q45 -428 45 -545q0 -266 -313 -266q-104 0 -155.5 53t-51.5 137z M1112 -326q0 -77 46 -77h1q27 0 46.5 39t19.5 98q0 166 -39 416q-35 -147 -54.5 -291t-19.5 -185zM1409 1010q76 33 111.5 50t87 51t73 73t21.5 88q0 53 -37 53q-43 0 -114.5 -83t-141.5 -232zM10 -371q0 324 64.5 669t179.5 624q-68 29 -111 62.5t-43 57.5q0 37 27 37 q29 0 89 -20.5t87 -24.5q233 492 526 492q131 0 180.5 -62.5t49.5 -177.5q0 -174 -162 -286.5t-395 -122.5q-59 -164 -92 -336q77 30 204 30q31 -239 151 -239h1q43 0 81 24.5t59.5 55t43 55.5t33.5 25q35 0 35 -66q0 -125 -61.5 -203t-188.5 -78q-59 0 -110.5 11.5t-82 26 t-52 29.5t-29.5 27l-9 11q45 -428 45 -545q0 -266 -313 -266q-104 0 -155.5 53t-51.5 137zM258 -326q0 -77 46 -77h1q27 0 46.5 39t19.5 98q0 166 -39 416q-35 -147 -54.5 -291t-19.5 -185zM555 1010q76 33 111.5 50t87 51t73 73t21.5 88q0 53 -37 53q-43 0 -114.5 -83 t-141.5 -232z" />
</font>
</defs>
</svg>
